<svg width="23" height="20" viewBox="0 0 23 20" fill="none" xmlns="http://www.w3.org/2000/svg">
<path d="M7.26818 16.2046L11.4994 13.881L15.7307 16.2352L14.6225 11.8324L18.35 8.89726L13.4471 8.49979L11.4994 4.34162L9.55171 8.46922L4.64883 8.86669L8.37636 11.8324L7.26818 16.2046ZM11.4994 16.755L5.92492 19.8125C5.67866 19.9551 5.4212 20.0163 5.15255 19.9959C4.8839 19.9755 4.64883 19.894 4.44735 19.7513C4.24586 19.6086 4.08914 19.4305 3.97721 19.2169C3.86527 19.0032 3.84288 18.7635 3.91004 18.4977L5.38762 12.7191L0.451166 8.83611C0.227291 8.65266 0.0875924 8.44353 0.0320712 8.20872C-0.0234499 7.9739 -0.00688319 7.7448 0.0817716 7.5214C0.170426 7.298 0.304752 7.11455 0.484748 6.97105C0.664744 6.82755 0.911007 6.73583 1.22354 6.69588L7.73832 6.17611L10.2569 0.733795C10.3689 0.489197 10.5426 0.305748 10.7781 0.183449C11.0136 0.0611494 11.2541 0 11.4994 0C11.7448 0 11.9852 0.0611494 12.2208 0.183449C12.4563 0.305748 12.63 0.489197 12.7419 0.733795L15.2605 6.17611L21.7753 6.69588C22.0887 6.73664 22.335 6.82837 22.5141 6.97105C22.6932 7.11373 22.8275 7.29718 22.9171 7.5214C23.0066 7.74561 23.0236 7.97513 22.9681 8.20994C22.9126 8.44476 22.7725 8.65348 22.5477 8.83611L17.6112 12.7191L19.0888 18.4977C19.156 18.7627 19.1336 19.0024 19.0216 19.2169C18.9097 19.4313 18.753 19.6094 18.5515 19.7513C18.35 19.8932 18.115 19.9747 17.8463 19.9959C17.5777 20.0171 17.3202 19.956 17.0739 19.8125L11.4994 16.755Z" fill="#F0E4C7"/>
</svg>
