<svg width="42" height="41" viewBox="0 0 42 41" fill="none" xmlns="http://www.w3.org/2000/svg">
<path d="M19.1425 0.298569L19.1418 0.298634C15.1265 0.679253 11.421 2.12188 8.16865 4.56504L8.16856 4.56512C6.59087 5.74908 4.53021 7.98877 3.34418 9.81154L3.34403 9.81178C2.83688 10.5893 1.83367 12.5938 1.47767 13.5409C1.08107 14.599 0.649264 16.2353 0.437824 17.4965C0.187391 19.034 0.187392 21.9737 0.437828 23.5112C0.803691 25.7001 1.37962 27.4567 2.36319 29.4155C3.43548 31.5473 4.54513 33.0571 6.33493 34.8112C8.13291 36.5573 9.68098 37.6403 11.8673 38.6869C13.8762 39.647 15.6782 40.2093 17.9237 40.5665C19.5016 40.8112 22.5169 40.8112 24.0948 40.5665C26.3402 40.2093 28.1423 39.647 30.151 38.687C32.3374 37.6403 33.8855 36.5573 35.6835 34.8113C37.4734 33.0571 38.583 31.5473 39.6554 29.4153L39.6555 29.4152C40.3719 27.9936 40.7275 27.0707 41.1175 25.644C41.6288 23.7435 41.75 22.7149 41.75 20.5038C41.75 18.2927 41.6288 17.2641 41.1175 15.3637C40.7275 13.937 40.3719 13.0141 39.6555 11.5925L39.6554 11.5923C38.5831 9.46046 37.4735 7.95065 35.6837 6.19656C33.8856 4.45039 32.3375 3.36735 30.151 2.32065L30.1508 2.32055C28.1505 1.36068 26.2996 0.79047 24.137 0.457314C22.9472 0.2757 20.2713 0.188446 19.1425 0.298569ZM22.6757 2.05468C31.0118 2.794 37.9045 8.79853 39.5971 16.7944C40.8814 22.8638 38.9293 29.1829 34.413 33.5889C31.7883 36.1495 28.4394 37.9129 24.8078 38.6442C18.5937 39.8957 12.1213 37.9944 7.60548 33.5889C4.98066 31.0282 3.17176 27.7596 2.4214 24.2132C1.1371 18.1438 3.08916 11.8248 7.60548 7.41875C11.5713 3.54982 17.16 1.55894 22.6757 2.05468Z" stroke="#F0E4C7" stroke-width="0.5"/>
<path d="M19.0551 1.16887C16.8504 1.36781 14.4511 2.03693 12.339 3.04967C10.1806 4.0805 8.68913 5.11133 6.9661 6.80224C5.23381 8.48412 4.17776 9.93993 3.12171 12.0468C0.435261 17.4089 0.435261 23.6119 3.11244 28.9559C4.17776 31.0809 5.24307 32.5186 6.9661 34.2005C8.68913 35.8914 10.1806 36.9222 12.339 37.9531C17.8323 40.5753 24.1871 40.5753 29.6619 37.9621C31.8389 36.9222 33.3118 35.8824 35.0348 34.2005C36.7578 32.5186 37.8231 31.0809 38.8885 28.9559C41.5656 23.6119 41.5656 17.4089 38.8792 12.0468C37.8231 9.93993 36.7671 8.48412 35.0348 6.80224C33.3118 5.11133 31.8203 4.0805 29.6619 3.04967C26.3455 1.46727 22.742 0.825268 19.0551 1.16887ZM20.5373 2.91404V3.59222H21.0005H21.4636V2.905V2.21778L21.9083 2.27204C22.1491 2.29916 22.6679 2.34438 23.0662 2.38055C23.4553 2.40767 23.7795 2.44384 23.7795 2.45288C23.7795 2.45288 23.7239 2.75128 23.6498 3.11297L23.5294 3.76402L23.9833 3.85444C24.2334 3.9087 24.4465 3.95391 24.465 3.95391C24.4836 3.95391 24.5484 3.65551 24.604 3.28478L24.7152 2.61565L25.1042 2.69703C25.4562 2.77841 26.855 3.14914 26.9106 3.18531C26.9292 3.2034 26.6605 3.98104 26.5123 4.32465C26.466 4.4422 26.5493 4.50549 26.8921 4.62304C27.133 4.70442 27.346 4.74963 27.3738 4.73155C27.3923 4.70442 27.5128 4.43315 27.6239 4.11667C27.7629 3.75498 27.8833 3.55605 27.9667 3.57413C28.1612 3.61934 29.8935 4.43315 29.8935 4.46932C29.8935 4.49645 29.7453 4.76772 29.5693 5.07516L29.2543 5.63578L29.6619 5.87088L30.0695 6.11502L30.4123 5.52728L30.7458 4.93952L30.9959 5.09324C31.5517 5.44589 32.5799 6.16928 32.5799 6.23257C32.5799 6.2597 32.3947 6.50385 32.1631 6.77512L31.7555 7.25436L32.0982 7.54371C32.2835 7.70647 32.4595 7.83307 32.4873 7.84211C32.5151 7.84211 32.7189 7.61605 32.9412 7.34478L33.3488 6.84745L33.7935 7.21819C34.0343 7.41712 34.4049 7.77881 34.6087 8.01391L34.9885 8.44795L34.479 8.84581C34.2011 9.06282 33.9695 9.26175 33.9695 9.28888C33.9788 9.31601 34.1084 9.47877 34.2752 9.66866L34.5809 9.99418L35.0719 9.59632C35.3405 9.3793 35.5906 9.19846 35.6184 9.19846C35.6833 9.19846 36.4243 10.2022 36.7856 10.7447L36.9431 10.9888L36.341 11.3144L35.7388 11.6489L35.989 12.0468L36.2298 12.4447L36.8041 12.1372C37.1191 11.9654 37.397 11.8207 37.4248 11.8207C37.4619 11.8207 38.2956 13.5116 38.3419 13.7015C38.3604 13.7829 38.1566 13.9005 37.7861 14.0361C37.4619 14.1446 37.184 14.2622 37.1562 14.2802C37.1376 14.3074 37.184 14.5153 37.2673 14.7504C37.3878 15.085 37.4526 15.1664 37.573 15.1212C37.925 14.9765 38.7217 14.7143 38.7402 14.7324C38.7773 14.7866 39.1571 16.152 39.2405 16.4956L39.3238 16.8754L38.6383 16.9839C38.2585 17.0382 37.9528 17.1015 37.9528 17.1195C37.9528 17.1376 37.9992 17.3456 38.0547 17.5897L38.1474 18.0328L38.8144 17.9153C39.1849 17.8429 39.4906 17.7887 39.4906 17.7887C39.4999 17.7887 39.5369 18.1052 39.5647 18.4849C39.6018 18.8737 39.6481 19.3801 39.6759 19.6152L39.7314 20.0493H37.8695H36.0075V20.5014V20.9535H37.8695H39.7314L39.6759 21.3785C39.6481 21.6226 39.6018 22.129 39.5647 22.5088C39.5369 22.8976 39.4999 23.2141 39.4906 23.2141C39.4906 23.2141 39.1849 23.1598 38.8144 23.0875L38.1474 22.9699L38.0547 23.413C37.9992 23.6571 37.9528 23.8651 37.9528 23.8832C37.9528 23.9013 38.2678 23.9646 38.6476 24.0188C39.2312 24.1093 39.3424 24.1545 39.3053 24.2811C39.2868 24.3624 39.1478 24.8417 39.0089 25.339C38.8699 25.8363 38.7495 26.2523 38.7402 26.2704C38.7217 26.2885 37.9343 26.0262 37.573 25.8816C37.4526 25.8363 37.3878 25.9177 37.2673 26.2523C37.184 26.4874 37.1376 26.6954 37.1562 26.7225C37.184 26.7406 37.4619 26.8581 37.7861 26.9666C38.1566 27.1023 38.3604 27.2198 38.3419 27.3012C38.2956 27.4911 37.4619 29.182 37.4248 29.182C37.397 29.182 37.1191 29.0373 36.8041 28.8655L36.2298 28.5581L35.989 28.9559L35.7388 29.3538L36.341 29.6884L36.9431 30.0139L36.7856 30.258C36.4243 30.8006 35.6833 31.8043 35.6184 31.8043C35.5906 31.8043 35.3405 31.6234 35.0719 31.4064L34.5809 31.0086L34.2752 31.3341C34.1084 31.524 33.9788 31.6867 33.9695 31.7139C33.9695 31.741 34.2011 31.9399 34.479 32.1569L34.9885 32.5548L34.6087 32.9888C34.4049 33.2239 34.0343 33.5856 33.7935 33.7845L33.3488 34.1553L32.9412 33.658C32.7189 33.3867 32.5151 33.1606 32.4873 33.1606C32.4595 33.1697 32.2835 33.2963 32.0982 33.459L31.7555 33.7484L32.1631 34.2276C32.3947 34.4989 32.5799 34.743 32.5799 34.7702C32.5799 34.8335 31.5517 35.5568 30.9959 35.9095L30.7458 36.0632L30.4123 35.4755L30.0695 34.8877L29.6619 35.1319L29.2543 35.367L29.5693 35.9276C29.7453 36.235 29.8935 36.5063 29.8935 36.5334C29.8935 36.5696 28.1612 37.3834 27.9667 37.4286C27.8833 37.4467 27.7629 37.2478 27.6239 36.8861C27.5128 36.5696 27.3923 36.2983 27.3738 36.2712C27.3275 36.235 26.466 36.4972 26.466 36.5515C26.466 36.5605 26.5679 36.8499 26.6976 37.1845C26.8273 37.519 26.9199 37.7993 26.9106 37.8174C26.855 37.8536 25.484 38.2243 25.1042 38.3057L24.7152 38.3871L24.604 37.718C24.5484 37.3472 24.4836 37.0488 24.465 37.0488C24.4465 37.0488 24.2334 37.094 23.9833 37.1483L23.5294 37.2387L23.6498 37.8898C23.7239 38.2515 23.7795 38.5499 23.7795 38.5499C23.7795 38.5589 23.4553 38.5951 23.0662 38.6222C22.6679 38.6584 22.1491 38.7036 21.9083 38.7307L21.4636 38.785V36.9674V35.1499H21.0005H20.5373V36.9674V38.785L20.1019 38.7307C19.8518 38.7036 19.333 38.6584 18.9439 38.6222C18.5456 38.5951 18.2214 38.5589 18.2214 38.5499C18.2214 38.5499 18.277 38.2515 18.3511 37.8898L18.4715 37.2387L18.0176 37.1483C17.7675 37.094 17.5544 37.0488 17.5359 37.0488C17.5173 37.0488 17.4525 37.3472 17.3969 37.718L17.2857 38.3871L16.8967 38.3057C16.5169 38.2243 15.1459 37.8536 15.0903 37.8174C15.081 37.7993 15.1736 37.519 15.3033 37.1845C15.433 36.8499 15.5349 36.5605 15.5349 36.5515C15.5349 36.4972 14.6734 36.235 14.6271 36.2712C14.6086 36.2983 14.4881 36.5696 14.377 36.8861C14.238 37.2478 14.1176 37.4467 14.0342 37.4286C13.8397 37.3834 12.1074 36.5696 12.1074 36.5334C12.1074 36.5063 12.2556 36.235 12.4316 35.9276L12.7466 35.367L12.339 35.1319L11.9314 34.8877L11.5886 35.4755L11.2551 36.0632L11.005 35.9095C10.4492 35.5568 9.42095 34.8335 9.42095 34.7702C9.42095 34.743 9.60622 34.4989 9.83781 34.2276L10.2454 33.7484L9.90266 33.459C9.71739 33.2963 9.54138 33.1697 9.51359 33.1606C9.4858 33.1606 9.282 33.3867 9.05967 33.658L8.65207 34.1553L8.20742 33.7845C7.96657 33.5856 7.59602 33.2239 7.39222 32.9888L7.01242 32.5548L7.52191 32.1569C7.79982 31.9399 8.03141 31.741 8.03141 31.7139C8.02215 31.6867 7.89246 31.5149 7.72571 31.3341L7.42928 30.9995L6.93831 31.3974C6.6604 31.6234 6.41028 31.8043 6.38249 31.8043C6.31765 31.8043 5.57656 30.8006 5.21528 30.258L5.0578 30.0139L5.65993 29.6884L6.26206 29.3538L6.01195 28.9559L5.77109 28.5581L5.19675 28.8655C4.88179 29.0373 4.60388 29.182 4.57609 29.182C4.53904 29.182 3.70531 27.4911 3.65899 27.3012C3.64047 27.2198 3.84427 27.1023 4.21481 26.9666C4.53904 26.8581 4.81694 26.7406 4.84473 26.7225C4.86326 26.6954 4.81694 26.4874 4.73357 26.2523C4.61314 25.9177 4.5483 25.8363 4.42787 25.8816C4.07586 26.0262 3.27919 26.2885 3.26066 26.2704C3.2236 26.2161 2.8438 24.8507 2.76042 24.5071L2.67705 24.1273L3.36256 24.0188C3.74237 23.9646 4.04806 23.9013 4.04806 23.8832C4.04806 23.8651 4.00175 23.6571 3.94617 23.413L3.85353 22.9699L3.18655 23.0875C2.81601 23.1598 2.51031 23.2141 2.51031 23.2141C2.50104 23.2141 2.46399 22.8976 2.4362 22.5088C2.39914 22.129 2.35283 21.6226 2.32504 21.3785L2.26945 20.9535H4.13144H5.99342V20.5014V20.0493H4.13144H2.26945L2.32504 19.6152C2.35283 19.3801 2.39914 18.8737 2.4362 18.4849C2.46399 18.1052 2.50104 17.7887 2.51031 17.7887C2.51031 17.7887 2.81601 17.8429 3.18655 17.9153L3.85353 18.0328L3.94617 17.5897C4.00175 17.3456 4.04806 17.1376 4.04806 17.1195C4.04806 17.1015 3.74237 17.0382 3.36256 16.9839L2.67705 16.8754L2.76042 16.4956C2.8438 16.152 3.2236 14.7866 3.26066 14.7324C3.27919 14.7143 4.07586 14.9765 4.42787 15.1212C4.5483 15.1664 4.61314 15.085 4.73357 14.7504C4.81694 14.5153 4.86326 14.3074 4.84473 14.2802C4.81694 14.2622 4.53904 14.1446 4.21481 14.0361C3.84427 13.9005 3.64047 13.7829 3.65899 13.7015C3.70531 13.5116 4.53904 11.8207 4.57609 11.8207C4.60388 11.8207 4.88179 11.9654 5.19675 12.1372L5.77109 12.4447L6.01195 12.0468L6.26206 11.6489L5.65993 11.3144L5.0578 10.9888L5.21528 10.7447C5.57656 10.2022 6.31765 9.19846 6.38249 9.19846C6.41028 9.19846 6.6604 9.3793 6.92904 9.59632L7.42001 9.99418L7.72571 9.66866C7.89246 9.47877 8.02215 9.31601 8.03141 9.28888C8.03141 9.26175 7.79982 9.06282 7.52191 8.84581L7.01242 8.44795L7.39222 8.01391C7.59602 7.77881 7.96657 7.41712 8.20742 7.21819L8.65207 6.84745L9.05967 7.34478C9.282 7.61605 9.4858 7.84211 9.51359 7.84211C9.54138 7.83307 9.71739 7.70647 9.90266 7.54371L10.2454 7.25436L9.83781 6.77512C9.60622 6.50385 9.42095 6.2597 9.42095 6.23257C9.42095 6.16928 10.4492 5.44589 11.005 5.09324L11.2551 4.93952L11.5886 5.52728L11.9314 6.11502L12.339 5.87088L12.7466 5.63578L12.4316 5.07516C12.2556 4.76772 12.1074 4.49645 12.1074 4.46932C12.1074 4.43315 13.8397 3.61934 14.0342 3.57413C14.1176 3.55605 14.238 3.75498 14.377 4.11667C14.4881 4.43315 14.6086 4.70442 14.6271 4.73155C14.6549 4.74963 14.8679 4.70442 15.1088 4.62304C15.4516 4.50549 15.5349 4.4422 15.4886 4.32465C15.3404 3.98104 15.0717 3.2034 15.0903 3.18531C15.1459 3.14914 16.5447 2.77841 16.8967 2.69703L17.2857 2.61565L17.3969 3.28478C17.4525 3.65551 17.5173 3.95391 17.5359 3.95391C17.5544 3.95391 17.7675 3.9087 18.0176 3.85444L18.4715 3.76402L18.3511 3.12202C18.277 2.76032 18.2306 2.46193 18.2492 2.45288C18.2677 2.4348 19.8332 2.28108 20.3335 2.24491C20.528 2.23587 20.5373 2.26299 20.5373 2.91404Z" fill="#F0E4C7"/>
<path d="M19.0357 8.76364C17.9833 10.6165 17.1447 12.1486 17.1611 12.1646C17.1776 12.1807 18.0409 11.7154 19.0686 11.1219C20.1046 10.5283 20.9761 10.039 21.009 10.039C21.0666 10.039 23.7058 11.547 24.7007 12.1486C24.8569 12.2368 24.9638 12.2849 24.9391 12.2368C24.9145 12.1967 24.0347 10.6406 22.9823 8.77166C21.9299 6.91074 21.0419 5.38671 21.009 5.38671C20.9761 5.38671 20.0882 6.90272 19.0357 8.76364Z" fill="#F0E4C7"/>
<path d="M17.3333 16.4301L13.6909 17.7296V19.1814C13.6909 20.4969 13.7074 20.6493 13.8389 20.6974C13.9129 20.7295 15.5573 21.2669 17.4977 21.9006L21.0085 23.0557L24.5275 21.9006C26.4597 21.2669 28.1041 20.7295 28.1863 20.6974C28.3096 20.6493 28.3261 20.4969 28.3261 19.1814V17.7296L24.7248 16.4542C22.7516 15.7564 21.0989 15.1708 21.0496 15.1628C21.0085 15.1468 19.3312 15.7163 17.3333 16.4301ZM23.6478 16.7831L26.287 17.7135L25.0208 18.1467C24.3302 18.3793 23.138 18.7723 22.3816 19.021L21.0003 19.4702L18.3775 18.6039C16.9386 18.1226 15.7629 17.7216 15.7793 17.7135C15.7957 17.6975 20.9263 15.8606 20.9838 15.8446C21.0003 15.8446 22.1925 16.2617 23.6478 16.7831Z" fill="#F0E4C7"/>
<path d="M13.6909 25.0919V27.771L17.3497 28.9822L21.0085 30.1934L24.6673 28.9822L28.3261 27.771V25.0919C28.3261 22.9823 28.3014 22.4128 28.2274 22.4369C28.1616 22.4609 28.1041 22.7176 28.0712 23.1507C27.9725 24.4181 27.4052 25.4288 26.6817 25.6293C26.3281 25.7255 25.7937 25.509 25.5388 25.156C25.3333 24.8753 25.0455 24.1293 25.029 23.8486C25.0208 23.7443 24.9715 23.9529 24.9222 24.3058C24.7248 25.501 24.3548 26.2549 23.7793 26.5918C23.0064 27.0571 22.176 26.3833 21.9047 25.0839C21.8471 24.8111 21.7731 24.5865 21.7402 24.5865C21.7156 24.5865 21.5347 24.6427 21.3456 24.7069C21.0496 24.8031 20.9674 24.8031 20.6714 24.7069C20.4823 24.6427 20.3014 24.5865 20.2767 24.5865C20.2438 24.5865 20.1698 24.8111 20.1123 25.0839C19.841 26.3833 19.0105 27.0571 18.2377 26.5918C17.6621 26.2549 17.2922 25.501 17.0948 24.3058C17.0455 23.9529 16.9962 23.7443 16.9879 23.8486C16.9715 24.1293 16.6837 24.8753 16.4782 25.156C16.2233 25.509 15.6889 25.7255 15.3353 25.6293C14.6036 25.4288 14.0445 24.4101 13.9458 23.1106C13.9129 22.7096 13.8554 22.4609 13.7978 22.4369C13.7156 22.4128 13.6909 22.9823 13.6909 25.0919Z" fill="#F0E4C7"/>
<path d="M14.2594 22.9917C14.7116 24.1387 15.5996 24.5799 16.2573 23.9703C16.5204 23.7297 16.6849 23.473 16.6273 23.4168C16.578 23.3607 14.2758 22.5826 14.1854 22.5826C14.136 22.5826 14.1772 22.7671 14.2594 22.9917Z" fill="#F0E4C7"/>
<path d="M26.5669 22.9837C25.942 23.2003 25.4158 23.3928 25.3911 23.4168C25.3336 23.473 25.498 23.7297 25.7611 23.9703C26.4189 24.5799 27.3068 24.1387 27.759 22.9917C27.8742 22.6949 27.8824 22.5826 27.8084 22.5906C27.759 22.5906 27.2 22.7671 26.5669 22.9837Z" fill="#F0E4C7"/>
<path d="M17.3091 23.7124C17.3091 23.961 17.7942 24.8033 18.0819 25.0519C18.3286 25.2605 18.4519 25.3086 18.7644 25.3086C19.1097 25.3086 19.1837 25.2765 19.5044 24.9476C19.7017 24.7471 19.8579 24.5546 19.8579 24.5145C19.8579 24.4744 19.3317 24.2658 18.6904 24.0573C18.0408 23.8487 17.4653 23.6642 17.416 23.6402C17.3584 23.6241 17.3091 23.6562 17.3091 23.7124Z" fill="#F0E4C7"/>
<path d="M23.377 24.0412C22.7028 24.2578 22.1602 24.4744 22.1602 24.5145C22.1602 24.5546 22.3164 24.7471 22.5137 24.9476C22.8344 25.2765 22.9084 25.3086 23.2537 25.3086C23.5661 25.3086 23.6894 25.2605 23.9361 25.0519C24.3308 24.715 24.8816 23.6081 24.6514 23.6322C24.6103 23.6322 24.043 23.8167 23.377 24.0412Z" fill="#F0E4C7"/>
</svg>
