<svg width="28" height="22" viewBox="0 0 28 22" fill="none" xmlns="http://www.w3.org/2000/svg">
<path d="M25.0691 5.28698L14.6062 11.7139C14.5088 11.771 14.4077 11.8136 14.3025 11.8423C14.1939 11.8719 14.094 11.8851 14.0019 11.8844C13.9071 11.8836 13.8054 11.87 13.6961 11.8415C13.5937 11.8149 13.4932 11.7729 13.3943 11.7142L3.05 5.36017V3.85V3.8335V3.81562V3.1968L13.8692 9.83806L14 9.91834L14.1308 9.83806L25.3308 2.96306L26.0852 2.5H25.2H2.8H1.91485L2.55 2.88988V3.81562V3.8335V3.85V5.05304V5.5V5.84375V19.25V19.5H2.8H25.2H25.45V19.25V5.5V5.05304L25.0691 5.28698ZM27.75 2.74969V2.75V19.25C27.75 19.938 27.5038 20.5218 27.0029 21.0147C26.502 21.5074 25.9058 21.7508 25.2003 21.75H25.2H2.8C2.09532 21.75 1.49935 21.5065 0.998377 21.0145C0.49757 20.5226 0.250886 19.9389 0.25 19.2498V2.75C0.25 2.06213 0.496499 1.47894 0.998225 0.987011C1.5003 0.494744 2.09645 0.250873 2.80015 0.25H25.2C25.9045 0.25 26.501 0.493827 27.003 0.986862C27.5049 1.47975 27.7508 2.06293 27.75 2.74969Z" stroke="#F0AA27" stroke-width="0.5"/>
</svg>
