<svg width="26" height="26" viewBox="0 0 26 26" fill="none" xmlns="http://www.w3.org/2000/svg">
<path d="M17.2275 9.45481C17.2275 10.576 16.7821 11.6512 15.9894 12.4439C15.1966 13.2367 14.1214 13.6821 13.0002 13.6821C11.8791 13.6821 10.8039 13.2367 10.0111 12.4439C9.21832 11.6512 8.77295 10.576 8.77295 9.45481C8.77295 8.33367 9.21832 7.25845 10.0111 6.46568C10.8039 5.67291 11.8791 5.22754 13.0002 5.22754C14.1214 5.22754 15.1966 5.67291 15.9894 6.46568C16.7821 7.25845 17.2275 8.33367 17.2275 9.45481ZM15.0251 11.4797C15.5622 10.9427 15.8639 10.2143 15.8639 9.45481C15.8639 8.69533 15.5622 7.96695 15.0251 7.42992C14.4881 6.89288 13.7597 6.59118 13.0002 6.59118C12.2407 6.59118 11.5124 6.89288 10.9753 7.42992C10.4383 7.96695 10.1366 8.69533 10.1366 9.45481C10.1366 10.2143 10.4383 10.9427 10.9753 11.4797C11.5124 12.0167 12.2407 12.3184 13.0002 12.3184C13.7597 12.3184 14.4881 12.0167 15.0251 11.4797Z" stroke="#F0AA27"/>
<path d="M5.6209 21.353L5.88679 20.9723C6.69496 19.815 7.77081 18.87 9.02276 18.218C10.2747 17.5659 11.6657 17.2261 13.0772 17.2273M5.6209 21.353L13.0768 17.7273M5.6209 21.353L5.98102 21.6463C7.96367 23.2607 10.4433 24.1403 13 24.1364M5.6209 21.353L6.29673 21.2585C8.19017 22.8003 10.5583 23.6403 13 23.6364M13.0772 17.2273L13.0768 17.7273M13.0772 17.2273C13.077 17.2273 13.0767 17.2273 13.0764 17.2273L13.0768 17.7273M13.0772 17.2273C14.4709 17.2262 15.8447 17.5576 17.0846 18.194C18.3247 18.8305 19.395 19.7538 20.2067 20.8871L20.4771 21.2646L20.1205 21.5621C18.1225 23.229 15.602 24.1402 13 24.1364M13.0768 17.7273C14.3912 17.7261 15.6869 18.0386 16.8563 18.6388C18.0256 19.239 19.0349 20.1096 19.8002 21.1782C17.8921 22.7701 15.4849 23.6403 13 23.6364M13 24.1364C13.0003 24.1364 13.0005 24.1364 13.0008 24.1364L13 23.6364M13 24.1364C12.9998 24.1364 12.9995 24.1364 12.9992 24.1364L13 23.6364M1.86364 12.9999V13C1.86364 15.5857 2.74616 17.9671 4.22469 19.8577L4.62373 20.3679L5.01627 19.8526C5.96166 18.6117 7.18101 17.606 8.57917 16.9141C9.97733 16.2221 11.5165 15.8626 13.0765 15.8636L13.0774 15.8636C14.6173 15.8618 16.1372 16.2117 17.5213 16.8866C18.9054 17.5615 20.1171 18.5435 21.064 19.7578L21.4627 20.2692L21.8559 19.7535C22.928 18.3474 23.6499 16.7061 23.9618 14.9656C24.2737 13.2251 24.1666 11.4353 23.6494 9.74439C23.1323 8.05345 22.2199 6.50997 20.9878 5.24165C19.7558 3.97333 18.2393 3.01663 16.5641 2.45072C14.8889 1.8848 13.1029 1.72594 11.3541 1.98728C9.60529 2.24861 7.94383 2.92263 6.50721 3.95356C5.0706 4.9845 3.90012 6.34271 3.09263 7.91581C2.28514 9.48891 1.86386 11.2317 1.86364 12.9999ZM0.5 13C0.5 6.0966 6.0966 0.5 13 0.5C19.9034 0.5 25.5 6.0966 25.5 13C25.5 19.9034 19.9034 25.5 13 25.5C6.0966 25.5 0.5 19.9034 0.5 13Z" stroke="#F0AA27"/>
</svg>
