<svg width="26" height="26" viewBox="0 0 26 26" fill="none" xmlns="http://www.w3.org/2000/svg">
<path d="M8.48756 11.9897L8.84316 12.343L9.19559 11.9865L11.9906 9.159L12.337 8.80858L11.9917 8.45709L10.1717 6.60459L9.81814 6.24475L9.46145 6.60145L8.385 7.67789L7.26807 6.56096L8.32009 5.48447L8.66557 5.13096L8.31605 4.78145L6.85355 3.31895L6.5 2.96539L6.14645 3.31895L3.31895 6.14645L2.96428 6.50112L3.32006 6.85467L8.48756 11.9897ZM19.1453 22.6799L19.4989 23.0357L19.8536 22.6811L22.6811 19.8536L23.0346 19.5L22.6811 19.1464L21.2186 17.6839L20.869 17.3344L20.5155 17.6799L19.439 18.7319L18.3181 17.611L19.3701 16.5345L19.7186 16.1778L19.3629 15.8283L17.5104 14.0083L17.1569 13.661L16.8064 14.0114L14.0114 16.8064L13.659 17.1589L14.0103 17.5124L19.1453 22.6799ZM7.34105 13.1339L0.707107 6.5L6.5 0.707107L13.1664 7.37355L13.5212 7.72828L13.8747 7.37238L18.7811 2.43355C18.7812 2.43336 18.7814 2.43316 18.7816 2.43296C18.9961 2.21869 19.232 2.06273 19.4907 1.95924C19.7572 1.85263 20.0301 1.8 20.3125 1.8C20.5949 1.8 20.8678 1.85263 21.1343 1.95924C21.3927 2.06258 21.6282 2.21823 21.8424 2.43202C21.8429 2.43253 21.8434 2.43304 21.8439 2.43355L23.5632 4.18523L23.5631 4.18525L23.5664 4.18855C23.781 4.40313 23.9372 4.63922 24.0408 4.89819L24.505 4.7125L24.0408 4.8982C24.1474 5.16472 24.2 5.43757 24.2 5.72C24.2 6.00239 24.1474 6.26803 24.0429 6.52095C23.9401 6.76982 23.7839 7.00218 23.567 7.21835L23.5653 7.22011L18.6578 12.1601L18.3066 12.5137L18.6589 12.8661L25.2929 19.5L19.5 25.2929L12.8661 18.6589L12.5125 18.3054L12.1589 18.6589L6.61789 24.2H1.8V19.3821L7.34105 13.8411L7.69461 13.4875L7.34105 13.1339ZM3.4 22.1V22.6H3.9H5.72H5.92673L6.0731 22.454L18.8131 9.7465L19.1676 9.39295L18.8136 9.03895L17.9036 8.12895L16.9611 7.18645L16.607 6.83244L16.2535 7.1869L3.546 19.9269L3.4 20.0733V20.28V22.1Z" stroke="#F0AA27"/>
</svg>
