<svg width="22" height="26" viewBox="0 0 22 26" fill="none" xmlns="http://www.w3.org/2000/svg">
<path d="M19.1147 14.7313V14.8385L19.1587 14.9363L21.401 19.9234L21.401 19.9234C21.4718 20.0808 21.5063 20.2586 21.499 20.4391C21.4917 20.6196 21.4431 20.7922 21.3608 20.9403C21.2785 21.0882 21.1672 21.204 21.0419 21.2816C20.9172 21.359 20.7811 21.3971 20.6461 21.3971H20.6461H15.7676H15.3708L15.2807 21.7836C15.0295 22.8614 14.4657 23.8063 13.6881 24.4755C12.9116 25.1437 11.9659 25.5 11 25.5C10.0341 25.5 9.08836 25.1437 8.31189 24.4755C7.53432 23.8063 6.97049 22.8614 6.7193 21.7836L6.62922 21.3971H6.23235H1.35395H1.35386C1.21887 21.3971 1.08281 21.359 0.958061 21.2816L0.694631 21.7066L0.958058 21.2816C0.832807 21.204 0.721452 21.0882 0.63924 20.9403C0.55694 20.7922 0.50826 20.6196 0.500959 20.4391C0.493659 20.2586 0.528179 20.0808 0.598972 19.9234L0.598984 19.9234L2.84128 14.9363L2.88525 14.8385V14.7313V9.57998C2.88525 7.15569 3.75175 4.83999 5.28024 3.14024C6.80716 1.44224 8.86601 0.5 11 0.5C13.134 0.5 15.1928 1.44224 16.7198 3.14024C18.2482 4.83999 19.1147 7.15569 19.1147 9.57998V14.7313ZM8.86847 21.3971H8.04546L8.42472 22.1275C8.67874 22.6167 9.04754 23.0296 9.49925 23.3196C9.95152 23.61 10.4693 23.7656 11 23.7656C11.5307 23.7656 12.0485 23.61 12.5007 23.3196C12.9525 23.0296 13.3213 22.6167 13.5753 22.1275L13.9545 21.3971H13.1315H8.86847ZM4.13088 15.7498L4.13085 15.7499L2.69095 18.9551L2.37429 19.66H3.14704H18.8542H19.6269L19.3103 18.9551L17.8704 15.7499L17.8701 15.7493C17.7286 15.4353 17.6537 15.0864 17.6534 14.7308V9.57998C17.6534 7.64867 16.964 5.78716 15.7229 4.40703C14.4802 3.02515 12.7828 2.23714 11 2.23714C9.21724 2.23714 7.51976 3.02515 6.27711 4.40703C5.03604 5.78716 4.34661 7.64867 4.34661 9.57998V14.7312C4.34661 14.7313 4.34661 14.7313 4.34661 14.7313C4.34658 15.0868 4.27208 15.4356 4.13088 15.7498Z" stroke="#F0AA27"/>
</svg>
