<svg width="361" height="150" viewBox="0 0 361 150" fill="none" xmlns="http://www.w3.org/2000/svg">
<path d="M177.626 39.8434C177.626 37.6691 179.452 35.9062 181.704 35.9062C183.956 35.9062 185.783 37.6691 185.783 39.8434C185.783 42.0175 183.956 43.7803 181.704 43.7803C179.452 43.7803 177.626 42.0175 177.626 39.8434Z" fill="#152222"/>
<path d="M178.854 32.4615C178.854 31.1028 179.995 30.0012 181.404 30.0012C182.811 30.0012 183.953 31.1028 183.953 32.4615C183.953 33.8213 182.811 34.9229 181.404 34.9229C179.995 34.9229 178.854 33.8213 178.854 32.4615Z" fill="#152222"/>
<path d="M179.874 27.5418C179.874 26.7259 180.557 26.0649 181.403 26.0649C182.248 26.0649 182.932 26.7259 182.932 27.5418C182.932 28.3566 182.248 29.0176 181.403 29.0176C180.557 29.0176 179.874 28.3566 179.874 27.5418Z" fill="#152222"/>
<path d="M181.404 14.2555L181.968 40.8281H180.839L181.404 14.2555Z" fill="#152222"/>
<path d="M181.87 61.5835C175.326 61.5835 169.137 58.8327 164.89 54.036L164.823 53.961L164.907 53.9035C169.546 50.724 173.692 47.6561 177.58 44.5244L181.307 41.5313L181.367 41.5819C182.138 42.2189 182.913 42.8532 183.691 43.4884C184.112 43.8326 184.534 44.1784 184.956 44.5244C189.079 47.8504 193.593 51.1762 198.372 54.4071L198.459 54.4664L198.388 54.5431C194.16 59.0174 188.141 61.5835 181.87 61.5835Z" fill="#152222"/>
<path d="M101.34 62.5543C101.34 61.5331 102.197 60.7054 103.255 60.7054C104.313 60.7054 105.171 61.5331 105.171 62.5543C105.171 63.5755 104.313 64.4033 103.255 64.4033C102.197 64.4033 101.34 63.5755 101.34 62.5543Z" fill="#152222"/>
<path d="M102.058 59.0878C102.058 58.4491 102.594 57.9324 103.255 57.9324C103.917 57.9324 104.453 58.4491 104.453 59.0878C104.453 59.7256 103.917 60.2432 103.255 60.2432C102.594 60.2432 102.058 59.7256 102.058 59.0878Z" fill="#152222"/>
<path d="M102.537 56.7775C102.537 56.3941 102.859 56.0839 103.255 56.0839C103.652 56.0839 103.973 56.3941 103.973 56.7775C103.973 57.16 103.652 57.4702 103.255 57.4702C102.859 57.4702 102.537 57.16 102.537 56.7775Z" fill="#152222"/>
<path d="M103.255 50.5372L103.537 63.0156H102.973L103.255 50.5372Z" fill="#152222"/>
<path d="M256.645 62.7355C256.645 61.7153 257.502 60.8875 258.561 60.8875C259.617 60.8875 260.475 61.7153 260.475 62.7355C260.475 63.7567 259.617 64.5845 258.561 64.5845C257.502 64.5845 256.645 63.7567 256.645 62.7355Z" fill="#152222"/>
<path d="M257.365 59.2693C257.365 58.6316 257.9 58.114 258.561 58.114C259.223 58.114 259.758 58.6316 259.758 59.2693C259.758 59.9072 259.223 60.4248 258.561 60.4248C257.9 60.4248 257.365 59.9072 257.365 59.2693Z" fill="#152222"/>
<path d="M257.843 56.9583C257.843 56.5748 258.165 56.2646 258.561 56.2646C258.957 56.2646 259.28 56.5748 259.28 56.9583C259.28 57.3407 258.957 57.6509 258.561 57.6509C258.165 57.6509 257.843 57.3407 257.843 56.9583Z" fill="#152222"/>
<path d="M258.562 50.7189L258.843 63.1982H258.279L258.562 50.7189Z" fill="#152222"/>
<path d="M39.644 83.1231C39.644 82.1019 38.7865 81.2741 37.7285 81.2741C36.6706 81.2741 35.813 82.1019 35.813 83.1231C35.813 84.1443 36.6706 84.9712 37.7285 84.9712C38.7865 84.9712 39.644 84.1443 39.644 83.1231Z" fill="#152222"/>
<path d="M38.9259 79.6547C38.9259 79.0168 38.3899 78.4993 37.7287 78.4993C37.0676 78.4993 36.5315 79.0168 36.5315 79.6547C36.5315 80.2934 37.0676 80.8101 37.7287 80.8101C38.3899 80.8101 38.9259 80.2934 38.9259 79.6547Z" fill="#152222"/>
<path d="M38.4469 77.345C38.4469 76.9625 38.1253 76.6523 37.7286 76.6523C37.3319 76.6523 37.0103 76.9625 37.0103 77.345C37.0103 77.7284 37.3319 78.0386 37.7286 78.0386C38.1253 78.0386 38.4469 77.7284 38.4469 77.345Z" fill="#152222"/>
<path d="M37.7288 71.1051L38.0108 83.5845H37.4468L37.7288 71.1051Z" fill="#152222"/>
<path d="M322.051 83.123C322.051 82.1019 322.908 81.274 323.966 81.274C325.024 81.274 325.881 82.1019 325.881 83.123C325.881 84.1443 325.024 84.9712 323.966 84.9712C322.908 84.9712 322.051 84.1443 322.051 83.123Z" fill="#152222"/>
<path d="M322.769 79.6547C322.769 79.0168 323.304 78.4993 323.966 78.4993C324.626 78.4993 325.163 79.0168 325.163 79.6547C325.163 80.2933 324.626 80.8101 323.966 80.8101C323.304 80.8101 322.769 80.2933 322.769 79.6547Z" fill="#152222"/>
<path d="M323.249 77.3451C323.249 76.9626 323.569 76.6524 323.966 76.6524C324.362 76.6524 324.685 76.9626 324.685 77.3451C324.685 77.7284 324.362 78.0386 323.966 78.0386C323.569 78.0386 323.249 77.7284 323.249 77.3451Z" fill="#152222"/>
<path d="M323.966 71.1047L324.248 83.584H323.683L323.966 71.1047Z" fill="#152222"/>
<path d="M193.046 14.9505C192.587 15.5393 192.05 16.087 191.441 16.5822C187.053 20.144 180.505 19.5986 176.815 15.3644C173.123 11.1291 173.688 4.80926 178.075 1.24629C178.685 0.752327 179.336 0.336113 180.016 -5.91278e-05C177.157 3.64638 177.18 8.83876 180.358 12.4863C183.537 16.1339 188.835 17.0441 193.046 14.9505Z" fill="#152222"/>
<path d="M216.794 113.165C219.047 111.891 232.092 104.178 233.095 91.7104C233.874 82.1283 228.152 72.4225 218.533 66.9574C211.629 63.0389 204.854 58.9219 198.318 54.4825C193.708 51.3648 189.22 48.0833 184.894 44.5944C183.696 43.6099 182.496 42.6348 181.306 41.6511L177.64 44.5944C173.545 47.8924 169.305 51.0014 164.962 53.978C158.194 58.6073 151.162 62.89 144 66.9574C134.381 72.4225 128.659 82.1283 129.439 91.7104C130.57 105.708 145.046 112.834 145.739 113.165H216.794Z" fill="#152222"/>
<path d="M121.791 101.148C122.966 100.484 129.767 96.4627 130.289 89.9634C130.696 84.968 127.712 79.9072 122.698 77.0588C119.098 75.0155 115.566 72.8694 112.158 70.5542C109.756 68.9301 107.416 67.2187 105.16 65.3994C104.536 64.887 103.91 64.3782 103.289 63.865L101.378 65.3994C99.2434 67.1194 97.0332 68.7401 94.7688 70.292C91.241 72.7056 87.5747 74.938 83.8414 77.0588C78.8264 79.9072 75.8433 84.968 76.2497 89.9634C76.8392 97.26 84.3862 100.975 84.7479 101.148V116.169H121.856L121.791 101.148Z" fill="#152222"/>
<path d="M24.4261 110.392C23.5815 109.914 18.6913 107.023 18.3156 102.349C18.0233 98.7576 20.1683 95.1189 23.7742 93.0703C26.3622 91.6013 28.9021 90.0581 31.3522 88.3939C33.0796 87.2254 34.7622 85.9951 36.3837 84.6872C36.8333 84.3186 37.2828 83.9526 37.7291 83.5841L39.1034 84.6872C40.6382 85.9245 42.2277 87.0895 43.8556 88.2048C46.3923 89.9405 49.0285 91.5455 51.7129 93.0703C55.3188 95.1189 57.4637 98.7576 57.1716 102.349C56.7477 107.596 51.3211 110.268 51.0611 110.392V119.867H23.5365L24.4261 110.392Z" fill="#152222"/>
<path d="M12.1393 18.2155C12.1393 17.3302 11.3961 16.6131 10.4792 16.6131C9.56238 16.6131 8.81909 17.3302 8.81909 18.2155C8.81909 19.0999 9.56238 19.8179 10.4792 19.8179C11.3961 19.8179 12.1393 19.0999 12.1393 18.2155Z" fill="#152222"/>
<path d="M11.6393 15.2122C11.6393 14.6589 11.1748 14.211 10.6018 14.211C10.0287 14.211 9.56421 14.6589 9.56421 15.2122C9.56421 15.7655 10.0287 16.2134 10.6018 16.2134C11.1748 16.2134 11.6393 15.7655 11.6393 15.2122Z" fill="#152222"/>
<path d="M11.2246 13.2083C11.2246 12.8772 10.9458 12.608 10.602 12.608C10.2582 12.608 9.97949 12.8772 9.97949 13.2083C9.97949 13.5403 10.2582 13.8096 10.602 13.8096C10.9458 13.8096 11.2246 13.5403 11.2246 13.2083Z" fill="#152222"/>
<path d="M10.6021 7.80123L10.8841 18.6172H10.3201L10.6021 7.80123Z" fill="#152222"/>
<path d="M18.2601 120.143H0L3.98823 59.7804L4.99611 44.5285L5.88176 31.1238L6.13559 27.2768C5.86106 27.1226 4.27213 26.1824 4.14994 24.6636C4.05592 23.496 4.75166 22.3128 5.92498 21.6471C6.76554 21.1696 7.591 20.6685 8.38827 20.1283C8.52738 20.0316 8.66843 19.9357 8.80571 19.839C9.22128 19.5454 9.62741 19.2404 10.0223 18.9232C10.1539 18.8161 10.2836 18.7089 10.4134 18.6017C10.4285 18.5886 10.4453 18.5764 10.4604 18.5634L10.908 18.9232C11.2182 19.1733 11.5359 19.4147 11.8594 19.6473C12.055 19.7902 12.2524 19.9296 12.4517 20.0664C13.2772 20.6302 14.1328 21.1513 15.0052 21.6471C16.1786 22.3128 16.8743 23.496 16.7803 24.6636C16.643 26.3688 14.8792 27.2367 14.7947 27.2768L14.9375 31.1238L15.4377 44.5285L16.0074 59.7804L17.6358 103.402L18.2601 120.143Z" fill="#152222"/>
<path d="M17.3105 31.6694H2.94419C2.63268 31.6694 2.38013 31.4255 2.38013 31.1248C2.38013 30.8242 2.63268 30.5803 2.94419 30.5803H17.3105C17.622 30.5803 17.8746 30.8242 17.8746 31.1248C17.8746 31.4255 17.622 31.6694 17.3105 31.6694Z" fill="#152222"/>
<path d="M17.7894 45.0732H2.94419C2.63268 45.0732 2.38013 44.8293 2.38013 44.5287C2.38013 44.228 2.63268 43.9841 2.94419 43.9841H17.7894C18.1008 43.9841 18.3534 44.228 18.3534 44.5287C18.3534 44.8293 18.1008 45.0732 17.7894 45.0732Z" fill="#152222"/>
<path d="M19.2264 60.3252H1.50791C1.19641 60.3252 0.943848 60.0812 0.943848 59.7806C0.943848 59.48 1.19641 59.2369 1.50791 59.2369H19.2264C19.5379 59.2369 19.7904 59.48 19.7904 59.7806C19.7904 60.0812 19.5379 60.3252 19.2264 60.3252Z" fill="#152222"/>
<path d="M239.905 101.148C238.73 100.484 231.929 96.4626 231.407 89.9633C231 84.9678 233.983 79.9072 238.999 77.0588C242.597 75.0153 246.131 72.8693 249.536 70.5541C251.939 68.93 254.28 67.2186 256.535 65.3993C257.16 64.8869 257.786 64.3781 258.407 63.8648L260.318 65.3993C262.452 67.1193 264.664 68.74 266.926 70.2918C270.454 72.7055 274.121 74.9379 277.853 77.0588C282.869 79.9072 285.852 84.9678 285.445 89.9633C284.856 97.2599 277.31 100.975 276.948 101.148V116.169H239.84L239.905 101.148Z" fill="#152222"/>
<path d="M337.269 110.392C338.114 109.914 343.004 107.023 343.381 102.349C343.672 98.7574 341.528 95.1188 337.92 93.0703C335.333 91.6012 332.793 90.058 330.345 88.3939C328.616 87.2254 326.933 85.9951 325.312 84.6872C324.863 84.3185 324.412 83.9525 323.967 83.5839L322.592 84.6872C321.057 85.9244 319.467 87.0894 317.84 88.2048C315.303 89.9403 312.668 91.5454 309.982 93.0703C306.376 95.1188 304.232 98.7574 304.525 102.349C304.947 107.596 310.374 110.268 310.635 110.392V119.867H338.158L337.269 110.392Z" fill="#152222"/>
<path d="M349.141 18.3974C349.141 17.5124 349.884 16.7951 350.801 16.7951C351.718 16.7951 352.462 17.5124 352.462 18.3974C352.462 19.2822 351.718 19.9995 350.801 19.9995C349.884 19.9995 349.141 19.2822 349.141 18.3974Z" fill="#152222"/>
<path d="M349.763 15.3936C349.763 14.8403 350.229 14.3921 350.801 14.3921C351.376 14.3921 351.84 14.8403 351.84 15.3936C351.84 15.9465 351.376 16.395 350.801 16.395C350.229 16.395 349.763 15.9465 349.763 15.3936Z" fill="#152222"/>
<path d="M350.179 13.3903C350.179 13.0585 350.459 12.7895 350.802 12.7895C351.147 12.7895 351.425 13.0585 351.425 13.3903C351.425 13.7221 351.147 13.9912 350.802 13.9912C350.459 13.9912 350.179 13.7221 350.179 13.3903Z" fill="#152222"/>
<path d="M350.801 7.98245L351.084 18.7979H350.519L350.801 7.98245Z" fill="#152222"/>
<path d="M361 118.106V120.143H342.957L343.577 103.491L345.209 59.7805L345.778 44.5285L346.279 31.1241L346.423 27.2766C346.336 27.2366 344.573 26.3691 344.436 24.6632C344.341 23.4963 345.038 22.313 346.21 21.6469C347.083 21.1515 347.94 20.6306 348.766 20.0661C348.965 19.9299 349.16 19.7903 349.357 19.647C349.68 19.4146 349.997 19.1732 350.307 18.9228L350.755 18.5636C350.77 18.5762 350.788 18.5888 350.803 18.6016C350.932 18.7087 351.062 18.8157 351.195 18.9228C351.59 19.2405 351.995 19.5452 352.411 19.8392C352.549 19.9355 352.688 20.0317 352.828 20.1279C353.625 20.6687 354.451 21.1697 355.293 21.6469C356.464 22.313 357.16 23.4963 357.067 24.6632C356.945 26.1822 355.355 27.1224 355.08 27.2766L355.33 31.1241L356.205 44.5285L357.199 59.7805L361 118.106Z" fill="#152222"/>
<path d="M358.273 31.6694H343.906C343.595 31.6694 343.342 31.4257 343.342 31.1249C343.342 30.8244 343.595 30.5806 343.906 30.5806H358.273C358.585 30.5806 358.836 30.8244 358.836 31.1249C358.836 31.4257 358.585 31.6694 358.273 31.6694Z" fill="#152222"/>
<path d="M358.273 45.0732H343.426C343.116 45.0732 342.863 44.8292 342.863 44.5287C342.863 44.2282 343.116 43.9842 343.426 43.9842H358.273C358.585 43.9842 358.836 44.2282 358.836 44.5287C358.836 44.8292 358.585 45.0732 358.273 45.0732Z" fill="#152222"/>
<path d="M359.708 60.3257H341.988C341.677 60.3257 341.425 60.0816 341.425 59.7811C341.425 59.4804 341.677 59.2372 341.988 59.2372H359.708C360.02 59.2372 360.272 59.4804 360.272 59.7811C360.272 60.0816 360.02 60.3257 359.708 60.3257Z" fill="#152222"/>
<path d="M352.037 118.142C343.417 113.933 350.668 106.577 343.807 103.458C343.807 103.458 343.727 103.471 343.577 103.492C343.477 103.505 343.344 103.522 343.183 103.544C339.648 103.991 321.66 105.871 304.604 100.368C304.584 100.363 304.564 100.357 304.547 100.35H304.544C297.965 98.2207 291.526 94.9923 286.111 90.1573C286.071 90.1233 286.034 90.0884 285.994 90.0544C285.823 89.9003 285.648 89.7512 285.469 89.6058C277.494 83.1109 260.394 83.3923 232.588 84.9363C232.426 84.9442 232.265 84.9528 232.103 84.9632C218.469 85.724 202.283 86.7782 183.359 87.484C183.047 87.4971 182.736 87.5059 182.424 87.5172H175.853C175.543 87.5059 175.23 87.4971 174.918 87.484C157.687 86.8419 142.725 85.9096 129.893 85.1741C129.816 85.1689 129.739 85.1655 129.664 85.161C103.197 83.6441 85.827 82.9766 76.3291 87.4302C76.1092 87.5319 75.8931 87.6382 75.6824 87.7455C74.3943 88.4086 73.2624 89.1745 72.2828 90.0544C67.8507 94.0419 62.7192 96.9234 57.3791 98.9883C57.191 99.0617 57.005 99.1322 56.8187 99.2011C42.0992 104.724 25.932 104.155 18.499 103.484C18.1962 103.457 17.9085 103.43 17.6358 103.403C15.5412 103.192 14.3378 102.996 14.3378 102.996C7.53097 106.089 5.47092 113.895 2.50674 118.142H0V149.173H361V118.142H352.037Z" fill="#152222"/>
<path d="M65.0654 35.3073C65.0654 34.4229 65.8087 33.7049 66.7256 33.7049C67.6424 33.7049 68.3856 34.4229 68.3856 35.3073C68.3856 36.1926 67.6424 36.9097 66.7256 36.9097C65.8087 36.9097 65.0654 36.1926 65.0654 35.3073Z" fill="#152222"/>
<path d="M65.6877 32.3031C65.6877 31.7507 66.1523 31.302 66.7253 31.302C67.2983 31.302 67.7629 31.7507 67.7629 32.3031C67.7629 32.8564 67.2983 33.3052 66.7253 33.3052C66.1523 33.3052 65.6877 32.8564 65.6877 32.3031Z" fill="#152222"/>
<path d="M66.103 30.301C66.103 29.969 66.3817 29.6998 66.7256 29.6998C67.0693 29.6998 67.3481 29.969 67.3481 30.301C67.3481 30.633 67.0693 30.9014 66.7256 30.9014C66.3817 30.9014 66.103 30.633 66.103 30.301Z" fill="#152222"/>
<path d="M66.7259 24.8934L67.0079 35.7085H66.4438L66.7259 24.8934Z" fill="#152222"/>
<path d="M74.3802 50.9316C74.8656 50.6572 77.6763 48.9946 77.8923 46.3092C78.0602 44.2441 76.8273 42.1529 74.7549 40.9757C73.2674 40.1314 71.8075 39.2443 70.3994 38.2876C69.4065 37.6167 68.4394 36.9091 67.5074 36.1572C67.249 35.9454 66.9906 35.7355 66.7342 35.5237L65.9443 36.1572C65.0621 36.8682 64.1485 37.5383 63.2128 38.1796C61.7549 39.1764 60.2397 40.1 58.6968 40.9757C56.6243 42.1529 55.3915 44.2441 55.5594 46.3092C55.803 49.3249 58.9219 50.8602 59.0715 50.9316H74.3802Z" fill="#152222"/>
<path d="M76.7823 119.405H56.6694L59.0639 50.5383H74.3879L76.7823 119.405Z" fill="#152222"/>
<path d="M75.6347 65.3281H57.4365C56.7756 65.3281 56.2397 64.8105 56.2397 64.1727C56.2397 63.534 56.7756 63.0165 57.4365 63.0165H75.6347C76.2957 63.0165 76.8315 63.534 76.8315 64.1727C76.8315 64.8105 76.2957 65.3281 75.6347 65.3281Z" fill="#152222"/>
<path d="M75.6347 78.269H57.4365C56.7756 78.269 56.2397 77.7515 56.2397 77.1136C56.2397 76.4758 56.7756 75.9582 57.4365 75.9582H75.6347C76.2957 75.9582 76.8315 76.4758 76.8315 77.1136C76.8315 77.7515 76.2957 78.269 75.6347 78.269Z" fill="#152222"/>
<path d="M296.933 35.3074C296.933 34.4224 296.19 33.705 295.274 33.705C294.357 33.705 293.612 34.4224 293.612 35.3074C293.612 36.1923 294.357 36.9097 295.274 36.9097C296.19 36.9097 296.933 36.1923 296.933 35.3074Z" fill="#152222"/>
<path d="M296.311 32.3032C296.311 31.7502 295.848 31.3018 295.275 31.3018C294.701 31.3018 294.237 31.7502 294.237 32.3032C294.237 32.8564 294.701 33.3047 295.275 33.3047C295.848 33.3047 296.311 32.8564 296.311 32.3032Z" fill="#152222"/>
<path d="M295.896 30.3006C295.896 29.9686 295.617 29.6998 295.274 29.6998C294.93 29.6998 294.651 29.9686 294.651 30.3006C294.651 30.6323 294.93 30.9014 295.274 30.9014C295.617 30.9014 295.896 30.6323 295.896 30.3006Z" fill="#152222"/>
<path d="M295.274 24.8932L295.555 35.7085H294.991L295.274 24.8932Z" fill="#152222"/>
<path d="M287.496 50.9316C287.011 50.6572 284.2 48.9947 283.984 46.3092C283.816 44.244 285.048 42.1529 287.122 40.9757C288.609 40.1315 290.068 39.2445 291.477 38.288C292.469 37.6165 293.436 36.9093 294.368 36.1575C294.628 35.9457 294.885 35.7354 295.143 35.5236L295.933 36.1575C296.813 36.8684 297.728 37.5381 298.663 38.1793C300.122 39.1768 301.638 40.0996 303.179 40.9757C305.251 42.1529 306.485 44.244 306.318 46.3092C306.073 49.3249 302.954 50.8601 302.805 50.9316H287.496Z" fill="#152222"/>
<path d="M285.093 119.405H305.206L302.812 50.5385H287.488L285.093 119.405Z" fill="#152222"/>
<path d="M286.242 65.3281H304.44C305.102 65.3281 305.636 64.8105 305.636 64.1728C305.636 63.5341 305.102 63.0165 304.44 63.0165H286.242C285.58 63.0165 285.044 63.5341 285.044 64.1728C285.044 64.8105 285.58 65.3281 286.242 65.3281Z" fill="#152222"/>
<path d="M286.242 78.269H304.44C305.102 78.269 305.636 77.7515 305.636 77.1137C305.636 76.4759 305.102 75.9583 304.44 75.9583H286.242C285.58 75.9583 285.044 76.4759 285.044 77.1137C285.044 77.7515 285.58 78.269 286.242 78.269Z" fill="#152222"/>
</svg>
