<svg width="19" height="19" viewBox="0 0 19 19" fill="none" xmlns="http://www.w3.org/2000/svg">
<path d="M1.37821 7.49152L1.37821 7.4915C1.3232 4.75913 2.57196 2.46344 4.27862 1.35203C5.84787 0.332324 7.79396 0.32008 9.4662 1.83825L9.80229 2.14337L10.1384 1.83825C11.8108 0.319886 13.757 0.331483 15.326 1.35206C17.0325 2.46237 18.2814 4.75895 18.2264 7.4915C18.1688 10.3337 16.3893 12.8559 14.3819 14.7C13.3855 15.6154 12.3529 16.3447 11.4935 16.8426C11.0636 17.0917 10.6832 17.2792 10.3776 17.4029C10.0533 17.5341 9.8667 17.5709 9.80229 17.5709C9.73787 17.5709 9.55122 17.5341 9.22698 17.4029C8.92133 17.2792 8.54087 17.0916 8.11091 16.8426C7.25143 16.3447 6.2188 15.6154 5.22234 14.7C3.21479 12.8558 1.43532 10.3337 1.37821 7.49152Z" fill="#F0E4C7" stroke="#F0E4C7"/>
</svg>
