<svg width="20" height="20" viewBox="0 0 20 20" fill="none" xmlns="http://www.w3.org/2000/svg">
<path fill-rule="evenodd" clip-rule="evenodd" d="M10.4467 0.12982C10.3131 0.0450277 10.1582 0 10 0C9.84181 0 9.68688 0.0450277 9.55333 0.12982L0.386667 5.96321C0.268218 6.03841 0.170674 6.14231 0.10308 6.26526C0.0354864 6.38821 3.05863e-05 6.52624 0 6.66655V19.1667C0 19.3877 0.0877975 19.5996 0.244078 19.7559C0.400358 19.9122 0.61232 20 0.833333 20H19.1667C19.3877 20 19.5996 19.9122 19.7559 19.7559C19.9122 19.5996 20 19.3877 20 19.1667V6.66655C20 6.52624 19.9645 6.38821 19.8969 6.26526C19.8293 6.14231 19.7318 6.03841 19.6133 5.96321L10.4467 0.12982ZM5 14.1666C5 14.6269 5.3731 15 5.83334 15H14.1667C14.6269 15 15 14.6269 15 14.1666C15 13.7064 14.6269 13.3333 14.1667 13.3333H5.83334C5.3731 13.3333 5 13.7064 5 14.1666Z" fill="white"/>
</svg>
