<svg width="40" height="40" viewBox="0 0 40 40" fill="none" xmlns="http://www.w3.org/2000/svg">
<path d="M20.0005 40.0001C8.97221 40.0001 0.000976562 31.0289 0.000976562 20.0005C0.000976562 8.97221 8.97221 0.000976562 20.0005 0.000976562C31.0289 0.000976562 40.0001 8.97221 40.0001 20.0005C40.0001 31.0289 31.0289 40.0001 20.0005 40.0001ZM20.0005 2.85806C10.5436 2.85806 2.85806 10.5436 2.85806 20.0005C2.85806 29.4575 10.5436 37.143 20.0005 37.143C29.4575 37.143 37.143 29.4575 37.143 20.0005C37.143 10.5436 29.4575 2.85806 20.0005 2.85806Z" fill="#E6CA8B"/>
<path d="M20.0009 28.7506C19.301 28.7506 18.751 28.2006 18.751 27.5006V12.5009C18.751 11.801 19.301 11.251 20.0009 11.251C20.7009 11.251 21.2509 11.801 21.2509 12.5009V27.5006C21.2509 28.2006 20.7009 28.7506 20.0009 28.7506Z" fill="#E6CA8B"/>
<path d="M27.5006 21.2509H12.5009C11.801 21.2509 11.251 20.7009 11.251 20.0009C11.251 19.301 11.801 18.751 12.5009 18.751H27.5006C28.2006 18.751 28.7506 19.301 28.7506 20.0009C28.7506 20.7009 28.2006 21.2509 27.5006 21.2509Z" fill="#E6CA8B"/>
</svg>
