<svg width="44" height="38" viewBox="0 0 44 38" fill="none" xmlns="http://www.w3.org/2000/svg">
<path d="M20.4843 0.100636C19.834 0.142445 18.7349 0.299225 18.048 0.445553C8.48589 2.47326 1.33265 11.1903 0.0961703 22.3009C-0.0320568 23.5134 -0.0320568 26.8371 0.0961703 28.0496C0.462534 31.2688 1.3876 34.5926 2.67903 37.2579L3.03623 38L9.09955 35.92C12.4426 34.7703 15.5475 33.7042 15.9963 33.5474L16.8207 33.2652L16.8481 31.8228L16.8756 30.3909L18.0663 32.0109C18.8906 33.1293 19.3394 33.6624 19.5409 33.7355C19.9897 33.9132 24.1204 33.8923 24.5051 33.7042C24.7066 33.6101 25.192 33.0457 25.9431 32.0214L27.0788 30.4849L27.1063 31.8333L27.1338 33.192L29.625 34.0596C30.9989 34.5404 34.1038 35.6169 36.5401 36.4635L40.9548 38L41.312 37.2579C42.2188 35.387 43.1255 32.6381 43.5102 30.6104C44.2155 26.8162 44.1605 22.5936 43.3362 18.9772C41.1563 9.3403 34.2595 2.05518 25.7233 0.393295C24.8348 0.226059 22.1238 -0.0456963 21.7666 0.00656509C21.7208 0.00656509 21.1437 0.0588264 20.4843 0.100636ZM24.1754 2.60914C26.053 2.83909 27.436 3.36169 27.9856 4.06199C28.3428 4.52188 28.2878 4.30238 29.506 9.65387C30.0189 11.8906 30.5135 14.0333 30.6142 14.3991C30.7058 14.7649 30.7882 15.3398 30.7882 15.6743C30.7882 16.2492 30.8066 16.291 31.0722 16.4477C31.2645 16.5627 31.4294 16.8136 31.5942 17.2107C31.8141 17.7438 31.8415 17.9215 31.8324 18.9562C31.8232 20.1582 31.7225 20.6286 31.2737 21.6738C31.0172 22.2696 30.6692 22.719 30.312 22.9385C30.1746 23.0221 30.0464 23.0848 30.0097 23.0848C29.9822 23.0848 29.9639 21.4857 29.9639 19.5311C29.9639 17.2316 29.9273 15.9774 29.8723 15.9774C29.8265 15.9774 29.7807 16.0192 29.7807 16.0819C29.7807 16.1342 29.68 17.3989 29.5518 18.8831C29.2495 22.51 28.9564 23.482 27.7658 24.8826C27.1979 25.5515 27.1429 25.5933 26.7583 25.5933C26.227 25.5829 25.998 25.4366 25.5859 24.799C25.3935 24.5168 25.1371 24.2346 25.018 24.1614C24.6883 23.9733 19.3028 23.9733 18.973 24.1614C18.854 24.2346 18.5975 24.5168 18.4052 24.799C17.993 25.4366 17.764 25.5829 17.2328 25.5933C16.8481 25.5933 16.7932 25.5515 16.2253 24.8826C15.5567 24.0987 15.0346 23.0639 14.824 22.0919C14.7141 21.632 14.2103 16.6045 14.2103 16.0401C14.2103 15.9983 14.1737 15.9983 14.1187 16.0297C14.0638 16.0715 14.0271 17.3675 14.0271 19.5938C14.0271 21.517 13.9997 23.0848 13.9722 23.0848C13.9355 23.0848 13.7798 22.9908 13.615 22.8758C12.5617 22.1337 11.8747 19.228 12.3327 17.472C12.4609 16.9703 12.9647 16.291 13.2028 16.291C13.2578 16.291 13.2944 15.946 13.2944 15.528C13.3036 14.3991 15.4285 4.87725 15.8223 4.23967C16.2986 3.46622 17.7274 2.84954 19.6142 2.60914C20.6217 2.48372 23.1496 2.47326 24.1754 2.60914ZM23.9739 25.6874C24.6883 26.0532 24.9448 26.7535 24.5418 27.2343C24.3494 27.4747 24.3311 27.4747 22.0047 27.4747C19.7332 27.4747 19.6691 27.4643 19.4585 27.2448C19.0371 26.7953 19.2753 26.1264 19.9988 25.7083C20.3561 25.5097 20.5484 25.4888 21.9955 25.4888C23.3602 25.4888 23.6533 25.5202 23.9739 25.6874Z" fill="#F0E4C7"/>
</svg>
