<svg width="26" height="26" viewBox="0 0 26 26" fill="none" xmlns="http://www.w3.org/2000/svg">
<path d="M11.265 15.795V16.295H11.765H14.17H14.67V15.795C14.67 15.109 14.7494 14.6171 14.8793 14.289C14.9974 13.9907 15.3807 13.4936 16.1382 12.7786L16.1434 12.7736L16.1485 12.7685C16.73 12.1871 17.1995 11.6226 17.5491 11.0744C17.934 10.4709 18.115 9.76183 18.115 8.97C18.115 7.6161 17.6093 6.52627 16.5777 5.77148C15.595 5.05237 14.4381 4.7 13.13 4.7C11.8046 4.7 10.6797 5.05066 9.80156 5.79319C8.96646 6.4993 8.37549 7.35522 8.04079 8.35648L7.89041 8.80634L8.33173 8.9802L10.4767 9.8252L10.9932 10.0287L11.1418 9.49382C11.2244 9.19634 11.4223 8.83651 11.7758 8.41281C12.0325 8.10514 12.4492 7.91 13.13 7.91C13.734 7.91 14.0986 8.07325 14.3208 8.31657C14.5952 8.6171 14.71 8.91727 14.71 9.23C14.71 9.5561 14.6142 9.86503 14.4075 10.1668C14.1761 10.5047 13.8835 10.8229 13.5254 11.1205L13.5193 11.1255L13.5133 11.1308C13.0291 11.56 12.6307 11.9437 12.3224 12.2805C12.0191 12.6119 11.782 12.9204 11.6428 13.1989C11.3681 13.7483 11.265 14.6477 11.265 15.795ZM13.001 25.5H13C11.2667 25.5 9.64438 25.1717 8.12799 24.5177C6.60204 23.8597 5.27963 22.9683 4.15618 21.8441C3.0326 20.7196 2.14157 19.3971 1.48349 17.8719C0.829593 16.3564 0.500837 14.734 0.500002 12.9997C0.499166 11.2658 0.827857 9.64376 1.48331 8.1285C2.1432 6.60297 3.0344 5.2802 4.15645 4.15566C5.27793 3.03168 6.60008 2.14086 8.12759 1.4837C9.64609 0.830426 11.2687 0.501677 13.0005 0.500006C14.7316 0.498336 16.3536 0.826955 17.8715 1.48334C19.3997 2.14413 20.7223 3.03529 21.8441 4.15619C22.9657 5.27694 23.8572 6.59941 24.5179 8.12835C25.1743 9.64722 25.5025 11.2692 25.5 12.9993C25.4975 14.7303 25.1687 16.3531 24.5162 17.8727C23.8599 19.4009 22.9692 20.7228 21.8446 21.8433C20.719 22.9647 19.3959 23.8565 17.871 24.5182C16.357 25.1751 14.7354 25.5033 13.001 25.5ZM12.935 21.3C13.5192 21.3 14.0322 21.0924 14.4429 20.6816C14.8537 20.2709 15.0611 19.758 15.06 19.174C15.0589 18.5916 14.8522 18.0797 14.4444 17.6685C14.0343 17.255 13.5196 17.0478 12.9331 17.05C12.3491 17.0522 11.8366 17.2589 11.4278 17.6688C11.0198 18.078 10.8133 18.5895 10.81 19.1721C10.8067 19.7592 11.0151 20.2742 11.4303 20.6849C11.8424 21.0924 12.3536 21.3 12.935 21.3Z" stroke="#F0AA27"/>
</svg>
