<svg width="48" height="63" viewBox="0 0 48 63" fill="none" xmlns="http://www.w3.org/2000/svg">
<circle cx="12" cy="6" r="2.5" stroke="black"/>
<circle cx="17" cy="4" r="2.5" stroke="black"/>
<circle cx="22" cy="3" r="2.5" stroke="black"/>
<circle cx="27" cy="3" r="2.5" stroke="black"/>
<circle cx="32" cy="4" r="2.5" stroke="black"/>
<circle cx="36" cy="7" r="2.5" stroke="black"/>
<circle cx="40" cy="10" r="2.5" stroke="black"/>
<circle cx="43" cy="14" r="2.5" stroke="black"/>
<circle cx="44" cy="19" r="2.5" stroke="black"/>
<circle cx="45" cy="24" r="2.5" stroke="black"/>
<circle cx="44" cy="29" r="2.5" stroke="black"/>
<circle cx="43" cy="34" r="2.5" stroke="black"/>
<circle cx="40" cy="38" r="2.5" stroke="black"/>
<circle cx="37" cy="42" r="2.5" stroke="black"/>
<circle cx="34" cy="46" r="2.5" stroke="black"/>
<circle cx="31" cy="50" r="2.5" stroke="black"/>
<circle cx="8" cy="9" r="2.5" stroke="black"/>
<circle cx="5" cy="13" r="2.5" stroke="black"/>
<circle cx="3" cy="18" r="2.5" stroke="black"/>
<circle cx="4" cy="23" r="2.5" stroke="black"/>
<circle cx="5" cy="28" r="2.5" stroke="black"/>
<circle cx="7" cy="33" r="2.5" stroke="black"/>
<circle cx="10" cy="37" r="2.5" stroke="black"/>
<circle cx="14" cy="40" r="2.5" stroke="black"/>
<circle cx="18" cy="43" r="2.5" stroke="black"/>
<circle cx="22" cy="46" r="2.5" stroke="black"/>
<circle cx="26" cy="49" r="2.5" stroke="black"/>
<path d="M29.354 56.6988C28.0129 58.2258 26.1258 58.4613 25.1401 57.5956C24.1543 56.7298 24.1443 54.8282 25.4854 53.3012C26.8265 51.7742 28.7135 51.5387 29.6993 52.4044C30.685 53.2702 30.6951 55.1718 29.354 56.6988Z" stroke="black"/>
<path d="M27.5 58L24 62.5" stroke="black" stroke-linecap="round"/>
<path d="M25.5 58C25 58.6667 23.2 60.2 20 61" stroke="black" stroke-linecap="round"/>
<path d="M25 57.5C23.1667 57.8333 19.2 58.5 18 58.5" stroke="black" stroke-linecap="round"/>
<path d="M24.5 56C23.5 56.3333 20.8 56.4 18 54" stroke="black" stroke-linecap="round"/>
</svg>
