<svg width="26" height="26" viewBox="0 0 26 26" fill="none" xmlns="http://www.w3.org/2000/svg">
<path d="M14.4669 10.6732L14.125 10.7871V11.1475V15.3059V15.387L14.1506 15.4639L15.7334 20.2138L15.7334 20.2139C15.7565 20.2832 15.7546 20.3584 15.728 20.4265C15.7036 20.4889 15.6598 20.5416 15.6034 20.5772L15.5201 20.6133C15.4553 20.6311 15.3864 20.6276 15.3235 20.603C15.2611 20.5786 15.2084 20.5348 15.1728 20.4784L15.1347 20.3904L13.5292 15.5738L13.4934 15.3563H12.5066L12.4708 15.5738L10.8584 20.4111L10.8574 20.4142C10.8331 20.4886 10.7818 20.5513 10.7135 20.5897C10.6452 20.628 10.565 20.6394 10.4888 20.6215C10.4126 20.6036 10.3458 20.5577 10.3018 20.4929C10.2614 20.4333 10.2428 20.3618 10.249 20.2905L10.2727 20.1956L11.8494 15.4589L11.875 15.382V15.301V11.1475V10.7871L11.5331 10.6732L7.21386 9.23341L7.21387 9.2334L7.21081 9.2324C7.13635 9.20811 7.07373 9.15675 7.03534 9.08849C6.99695 9.02023 6.98559 8.94004 7.00351 8.8638C7.02143 8.78756 7.06733 8.72083 7.13211 8.67682C7.19166 8.63636 7.26319 8.61781 7.33454 8.62396L7.42943 8.64768L12.1644 10.2244L12.2413 10.25H12.3224H13.676H13.757L13.8339 10.2244L18.5885 8.64171C18.6671 8.61558 18.7528 8.6217 18.8269 8.65873C18.9009 8.69573 18.9572 8.76058 18.9835 8.83903C19.0065 8.9083 19.0046 8.98346 18.978 9.05145C18.9536 9.11387 18.9098 9.16663 18.8534 9.20216L18.7654 9.24033L14.4669 10.6732ZM13 0.5C16.3152 0.5 19.4946 1.81696 21.8388 4.16117C24.183 6.50537 25.5 9.68479 25.5 13C25.5 16.3152 24.183 19.4946 21.8388 21.8388C19.4946 24.183 16.3152 25.5 13 25.5C9.68479 25.5 6.50537 24.183 4.16117 21.8388C1.81696 19.4946 0.5 16.3152 0.5 13C0.5 9.68479 1.81696 6.50537 4.16117 4.16117C6.50537 1.81696 9.68479 0.5 13 0.5ZM13 1.125C9.85055 1.125 6.8301 2.37611 4.60311 4.60311C2.37611 6.8301 1.125 9.85055 1.125 13C1.125 16.1494 2.37611 19.1699 4.60311 21.3969C6.8301 23.6239 9.85055 24.875 13 24.875C16.1494 24.875 19.1699 23.6239 21.3969 21.3969C23.6239 19.1699 24.875 16.1494 24.875 13C24.875 9.85055 23.6239 6.8301 21.3969 4.60311C19.1699 2.37611 16.1494 1.125 13 1.125ZM13 5.375C13.2984 5.375 13.5845 5.49353 13.7955 5.7045C14.0065 5.91548 14.125 6.20163 14.125 6.5C14.125 6.79837 14.0065 7.08452 13.7955 7.2955C13.5845 7.50647 13.2984 7.625 13 7.625C12.7016 7.625 12.4155 7.50647 12.2045 7.2955C11.9935 7.08452 11.875 6.79837 11.875 6.5C11.875 6.20163 11.9935 5.91548 12.2045 5.7045C12.4155 5.49353 12.7016 5.375 13 5.375Z" stroke="#F0AA27"/>
</svg>
