<svg width="40" height="38" viewBox="0 0 40 38" fill="none" xmlns="http://www.w3.org/2000/svg">
<path d="M0.424138 23.8716L14.069 29.673L6.89655 32.7221V28.148H5.51724V37.2962C5.51723 37.4121 5.54527 37.5262 5.59886 37.6284C5.65245 37.7305 5.72994 37.8176 5.82444 37.8819C5.91894 37.9461 6.02754 37.9856 6.14058 37.9967C6.25361 38.0079 6.3676 37.9904 6.47241 37.9458L19.9641 32.2091L19.949 32.1725L33.5283 37.9458C33.6331 37.9902 33.747 38.0076 33.8599 37.9964C33.9729 37.9852 34.0813 37.9457 34.1758 37.8815C34.2702 37.8172 34.3476 37.7302 34.4011 37.6281C34.4547 37.526 34.4827 37.412 34.4828 37.2962V28.148H33.1034V32.7221L25.931 29.673L39.5759 23.8716C39.7015 23.8181 39.8088 23.7279 39.8843 23.6123C39.9597 23.4968 40 23.361 40 23.2221V5.62938C40 5.5135 39.972 5.39941 39.9184 5.29724C39.8648 5.19507 39.7873 5.10799 39.6928 5.04373C39.5983 4.97947 39.4897 4.94001 39.3767 4.92887C39.2636 4.91773 39.1496 4.93524 39.0448 4.97985L35.1724 6.62653V0.70342C35.1723 0.586242 35.1434 0.470956 35.0886 0.368004C35.0338 0.265052 34.9546 0.177687 34.8583 0.113822C34.762 0.0499561 34.6517 0.0116076 34.5372 0.00224993C34.4227 -0.00710777 34.3078 0.0128208 34.2028 0.0602307C32.4133 0.843552 30.5471 1.43023 28.6359 1.81035C26.8014 2.13195 25.1572 1.37546 23.4138 2.03765C22.0209 2.53608 20.8234 3.48078 20 4.73074C19.1768 3.48061 17.9792 2.53585 16.5862 2.03765C14.8434 1.37546 13.1959 2.13195 11.3641 1.81035C9.45289 1.43026 7.58673 0.843577 5.79724 0.0602307C5.69222 0.0128208 5.57727 -0.00710777 5.4628 0.00224993C5.34833 0.0116076 5.23795 0.0499561 5.14167 0.113822C5.04539 0.177687 4.96624 0.265052 4.9114 0.368004C4.85655 0.470956 4.82775 0.586242 4.82759 0.70342V6.6216L0.954483 4.97985C0.849704 4.93539 0.735793 4.91799 0.622848 4.92921C0.509904 4.94043 0.401417 4.97991 0.307008 5.04415C0.212599 5.1084 0.135185 5.19542 0.0816307 5.29751C0.0280768 5.39959 3.77985e-05 5.51358 2.40107e-09 5.62938V23.2221C-1.13532e-05 23.361 0.0402564 23.4968 0.115732 23.6123C0.191207 23.7279 0.298514 23.8181 0.424138 23.8716ZM6.89655 36.2407V34.2464L15.8621 30.4351L18.2069 31.4322L6.89655 36.2407ZM33.1034 36.2407L1.37931 22.7534V20.7591L33.1034 34.2464V36.2407ZM38.6207 22.7534L24.1379 28.9108L21.7931 27.9137L38.6207 20.7591V22.7534ZM6.2069 15.8254C7.79965 16.4656 9.44845 16.9498 11.131 17.2715C12.0065 17.398 12.8944 17.408 13.7724 17.3011C14.5501 17.1692 15.3466 17.2136 16.1055 17.4313C16.8308 17.6692 17.4948 18.0693 18.0492 18.6024C18.6037 19.1356 19.0345 19.7882 19.3103 20.5128V22.6352L6.2069 17.0646V15.8254ZM20.6897 20.5128C20.9654 19.7881 21.3963 19.1353 21.9507 18.6021C22.5051 18.0689 23.1692 17.6686 23.8945 17.4306C25.2414 16.9204 26.8462 17.6276 28.869 17.2722C30.5516 16.9503 32.2004 16.4658 33.7931 15.8254V17.0646L20.6897 22.6352V20.5128ZM23.8945 3.3564C25.2414 2.84621 26.8462 3.55344 28.869 3.19806C30.5515 2.87602 32.2002 2.39181 33.7931 1.75194V14.3103C32.1301 15.0103 30.4023 15.5377 28.6359 15.8845C26.8083 16.2061 25.1545 15.4496 23.4138 16.1118C22.3799 16.4908 21.447 17.1111 20.6897 17.9232V6.43864C20.9654 5.71394 21.3963 5.06118 21.9507 4.52795C22.5051 3.99472 23.1692 3.59448 23.8945 3.3564ZM6.2069 1.75194C7.79976 2.39181 9.44853 2.87602 11.131 3.19806C12.0065 3.32441 12.8944 3.33435 13.7724 3.22762C14.55 3.09567 15.3465 3.13988 16.1055 3.3571C16.8306 3.59492 17.4946 3.99482 18.049 4.52768C18.6034 5.06053 19.0343 5.7129 19.3103 6.43723V17.9232C18.5531 17.111 17.6202 16.4907 16.5862 16.1118C14.8503 15.4517 13.1862 16.2047 11.3641 15.8838C9.5977 15.5374 7.86991 15.0105 6.2069 14.311V1.75194ZM1.37931 6.68353L4.82759 8.14513V17.5333C4.82757 17.6722 4.86784 17.808 4.94332 17.9236C5.01879 18.0391 5.1261 18.1293 5.25172 18.1828L19.7345 24.3403C19.8186 24.3761 19.9088 24.3946 20 24.3946C20.0912 24.3946 20.1814 24.3761 20.2655 24.3403L34.7483 18.1828C34.8738 18.1294 34.981 18.0393 35.0565 17.9238C35.132 17.8084 35.1723 17.6728 35.1724 17.534V8.15006L38.6207 6.68423V19.2342L38.5828 19.2496L20 27.1509L1.37931 19.2342V6.68353Z" fill="#F0E4C7"/>
</svg>
