<svg width="43" height="39" viewBox="0 0 43 39" fill="none" xmlns="http://www.w3.org/2000/svg">
<path d="M19.3579 0.244114C18.6637 0.401703 17.6522 0.756283 17.077 1.07146C15.6887 1.80032 13.5466 3.8293 12.9119 5.01123C11.1467 8.26155 10.5913 12.7135 11.2657 18.564C11.6822 22.3265 11.7219 22.1689 10.6905 22.6023C10.2145 22.819 8.86578 23.213 7.69557 23.4888C6.5452 23.7645 5.23616 24.1585 4.81965 24.3752C3.92712 24.8283 2.71725 26.1481 1.98339 27.4679C1.28921 28.7484 0.297509 31.8214 0.138838 33.1412L0 34.2049L0.773524 34.5201C11.0872 38.8145 21.8173 39.8782 32.4483 37.6522C35.0863 37.1007 38.6564 35.9975 41.3141 34.9338L43 34.2443L42.9603 33.2397C42.9008 32.0775 41.7108 28.3938 40.9769 27.1527C40.2629 25.9314 39.1919 24.8086 38.3192 24.3555C37.9027 24.1585 36.6135 23.7645 35.4631 23.4888C33.1425 22.9569 31.5955 22.3462 31.5955 22.0113C31.5955 21.8932 31.7343 20.5733 31.9128 19.0959C32.3293 15.4713 32.2103 10.5072 31.6351 8.39944C31.0005 6.01588 30.1079 4.36117 28.7394 3.02165C26.1808 0.480499 22.8289 -0.504444 19.3579 0.244114ZM24.1181 1.52454C25.7841 2.03671 27.6287 3.27774 28.5212 4.45967C30.8418 7.61148 31.4566 11.9846 30.6633 19.549C30.2864 23.1539 30.1873 23.41 28.0849 25.3798C26.875 26.5421 25.7246 27.2118 24.3759 27.6058C23.8007 27.7634 23.5429 27.9604 23.5032 28.2559C23.4041 28.8468 23.9197 28.9453 25.2288 28.5317C27.2717 27.9013 29.3344 26.2663 30.7228 24.1979C31.0996 23.607 31.3575 23.41 31.5756 23.5085C32.8252 24.0206 33.8367 24.3555 34.8284 24.5722C35.4433 24.7101 35.959 24.9071 35.959 25.0253C35.959 25.1238 35.6813 25.7738 35.3639 26.4633C34.0946 29.0832 31.3178 31.9593 27.827 34.2049C25.8635 35.4657 21.7975 37.5734 21.2818 37.5734C20.8058 37.5734 16.7597 35.5051 15.0341 34.4019C10.9087 31.7426 7.99308 28.5908 6.82288 25.5177C6.62454 25.0056 6.62454 25.0056 8.35009 24.5722C9.30212 24.3358 10.4525 23.9812 10.9087 23.7842L11.7417 23.41L12.2574 24.5328C13.7449 27.7634 17.0175 31.3683 19.7348 32.7472C21.2223 33.5155 21.8768 33.5549 21.8768 32.9442C21.8768 32.7669 21.5992 32.4714 21.262 32.2941C17.6324 30.344 15.1531 27.724 13.3879 23.9812C12.8326 22.819 12.7532 22.3462 12.4359 18.8398C11.7417 10.9406 12.5152 6.84323 15.2325 3.9278C17.4935 1.48514 20.9645 0.559296 24.1181 1.52454ZM38.0415 25.5571C39.5092 26.4633 40.8381 28.965 41.5918 32.2154L41.8893 33.4564L40.9571 33.8504C38.101 35.0717 32.5872 36.5885 29.3146 37.0613C26.7163 37.4355 24.6536 37.6325 24.6536 37.5143C24.6536 37.4552 25.2486 37.081 25.9626 36.687C31.179 33.8504 35.2251 29.9303 36.7721 26.2466C37.0101 25.6556 37.268 25.1632 37.3077 25.1632C37.3672 25.1632 37.6845 25.3405 38.0415 25.5571ZM5.91052 26.3648C6.46587 27.9604 8.01292 30.0485 9.91697 31.8608C11.94 33.7913 13.3879 34.855 15.9862 36.3521L17.8109 37.4158L16.0853 37.2977C13.8639 37.1401 10.7302 36.5491 7.77491 35.702C5.41467 35.0126 1.66605 33.7125 1.38838 33.4564C1.15037 33.22 2.00323 30.2849 2.81642 28.5711C3.51061 27.1527 4.93865 25.3601 5.375 25.3601C5.45434 25.3601 5.69234 25.8132 5.91052 26.3648Z" fill="#F0E4C7"/>
<path d="M19.5364 6.74471C18.0092 7.07959 16.7597 7.76905 15.3713 9.06918C13.6259 10.7239 13.4672 11.0982 13.4871 13.6196C13.4871 14.9394 13.6259 16.3381 13.8242 17.1654C14.5779 20.2778 16.6208 22.8387 19.1794 23.8433C21.0636 24.6116 21.7777 24.6707 23.1462 24.1979C25.8833 23.2524 27.8072 21.4401 28.779 18.9186C29.8897 16.0426 30.1079 12.1028 29.2154 10.6845C28.6402 9.75864 26.637 7.94634 25.6651 7.45387C24.6932 6.9614 22.5313 6.44923 21.4801 6.46893C21.1033 6.46893 20.2108 6.60682 19.5364 6.74471ZM24.7527 8.37972C26.0618 8.99038 27.9063 10.5072 27.708 10.8027C27.5692 11.0391 15.5895 11.0391 15.4506 10.8027C15.1333 10.3102 18.1877 8.24183 19.8339 7.82815C21.2025 7.49327 23.3445 7.72965 24.7527 8.37972ZM28.5014 12.2801C28.7195 12.8317 28.6204 15.1955 28.3229 16.5941C27.708 19.5096 26.161 21.5582 23.7015 22.7205C21.619 23.7251 19.5166 23.2524 17.3944 21.3613C15.6093 19.7657 14.5383 16.9487 14.5383 13.856C14.5383 11.7679 13.8441 11.9649 21.5793 11.9649C27.589 11.9649 28.4022 12.0043 28.5014 12.2801Z" fill="#F0E4C7"/>
</svg>
