<svg width="43" height="45" viewBox="0 0 43 45" fill="none" xmlns="http://www.w3.org/2000/svg">
<path d="M10.7017 3.73289L0 7.55936V11.8346C0 15.7083 0.0483146 16.1571 0.434831 16.2988C0.652247 16.3933 5.48371 17.9759 11.1848 19.8419L21.5 23.2432L31.8393 19.8419C37.5163 17.9759 42.3478 16.3933 42.5893 16.2988C42.9517 16.1571 43 15.7083 43 11.8346V7.55936L32.4191 3.80375C26.6213 1.74879 21.7657 0.0245154 21.6208 0.000895172C21.5 -0.0463452 16.5719 1.63069 10.7017 3.73289ZM29.2545 4.77217L37.009 7.51212L33.2888 8.78761C31.2595 9.47259 27.7567 10.63 25.5343 11.3622L21.4758 12.6849L13.7697 10.134C9.54213 8.71675 6.08764 7.53574 6.13595 7.51212C6.18427 7.46488 21.2584 2.05585 21.4275 2.00861C21.4758 2.00861 24.9787 3.23686 29.2545 4.77217Z" fill="#F0E4C7"/>
<path d="M0 28.8764V36.9038L10.75 40.5329L21.5 44.1621L32.25 40.5329L43 36.9038V28.8764C43 22.5554 42.9275 20.8489 42.7101 20.921C42.5169 20.9931 42.3478 21.7622 42.2511 23.0601C41.9612 26.8575 40.2944 29.8858 38.1685 30.4866C37.1298 30.7751 35.5595 30.1261 34.8107 29.0686C34.2067 28.2274 33.3612 25.9923 33.3129 25.1511C33.2888 24.8386 33.1438 25.4635 32.9989 26.521C32.4191 30.1021 31.332 32.3613 29.641 33.3708C27.3702 34.7647 24.9303 32.7459 24.1331 28.8523C23.964 28.0352 23.7466 27.3622 23.65 27.3622C23.5775 27.3622 23.0461 27.5304 22.4904 27.7227C21.6208 28.0111 21.3792 28.0111 20.5095 27.7227C19.9539 27.5304 19.4225 27.3622 19.35 27.3622C19.2534 27.3622 19.036 28.0352 18.8669 28.8523C18.0697 32.7459 15.6298 34.7647 13.359 33.3708C11.668 32.3613 10.5809 30.1021 10.0011 26.521C9.85618 25.4635 9.71124 24.8386 9.68708 25.1511C9.63876 25.9923 8.79326 28.2274 8.18933 29.0686C7.44045 30.1261 5.87022 30.7751 4.83146 30.4866C2.68146 29.8858 1.03876 26.8334 0.748876 22.9399C0.652247 21.7382 0.483146 20.9931 0.314045 20.921C0.0724719 20.8489 0 22.5554 0 28.8764Z" fill="#F0E4C7"/>
<path d="M1.47543 23.2251C2.96197 26.4333 5.88101 27.6673 8.04326 25.9622C8.90816 25.2891 9.44872 24.5712 9.25952 24.4141C9.09735 24.2571 1.52948 22.0808 1.23217 22.0808C1.07001 22.0808 1.20515 22.5969 1.47543 23.2251Z" fill="#F0E4C7"/>
<path d="M38.2074 23.1864C36.448 23.7949 34.9665 24.3358 34.8971 24.4035C34.735 24.5612 35.198 25.2825 35.9388 25.9586C37.7907 27.6716 40.2908 26.432 41.564 23.2089C41.888 22.375 41.9112 22.0594 41.7029 22.082C41.564 22.082 39.9898 22.5778 38.2074 23.1864Z" fill="#F0E4C7"/>
<path d="M10.4595 24.6707C10.4595 25.5345 12.0078 28.4606 12.9263 29.3245C13.7135 30.0491 14.1072 30.2163 15.1044 30.2163C16.2066 30.2163 16.4427 30.1048 17.4662 28.9623C18.096 28.2656 18.5946 27.5968 18.5946 27.4574C18.5946 27.3181 16.9151 26.5935 14.8682 25.869C12.795 25.1444 10.9581 24.5034 10.8006 24.4198C10.6169 24.3641 10.4595 24.4756 10.4595 24.6707Z" fill="#F0E4C7"/>
<path d="M28.9006 25.8245C27.0538 26.575 25.5674 27.3255 25.5674 27.4645C25.5674 27.6034 25.9953 28.2706 26.5358 28.9655C27.4141 30.1051 27.6168 30.2163 28.5627 30.2163C29.4186 30.2163 29.7564 30.0495 30.432 29.3268C31.5131 28.1594 33.022 24.3234 32.3914 24.4068C32.2788 24.4068 30.7248 25.0462 28.9006 25.8245Z" fill="#F0E4C7"/>
</svg>
