<svg width="1000" height="465" viewBox="0 0 1000 465" fill="none" xmlns="http://www.w3.org/2000/svg">
<path d="M433.615 300.258C431.281 288.475 419.696 273.799 406.46 269.166H406.489C406.489 269.166 405.675 267.998 405.207 267.764C404.781 267.551 400.88 267.134 399.536 263.766C400.043 263.374 400.376 262.766 400.376 262.075C400.376 261.119 399.745 260.319 398.88 260.043C398.853 259.711 398.829 259.368 398.808 259.016C399.559 258.772 400.105 258.076 400.105 257.244C400.105 256.363 399.495 255.63 398.675 255.43C398.667 254.963 398.661 254.502 398.657 254.044C399.136 253.868 399.481 253.42 399.481 252.88C399.481 252.34 399.135 251.891 398.656 251.718C398.664 250.591 398.68 249.598 398.697 248.832C399.483 248.748 400.165 248.323 400.568 247.687C400.373 247.779 400.159 247.835 399.929 247.835C399.101 247.835 398.429 247.163 398.429 246.335C398.429 245.507 399.101 244.835 399.929 244.835C400.159 244.835 400.373 244.891 400.568 244.983C400.119 244.274 399.331 243.803 398.429 243.803C397.031 243.803 395.897 244.936 395.897 246.335C395.897 247.503 396.692 248.476 397.767 248.768C397.784 249.542 397.801 250.558 397.809 251.718C397.331 251.891 396.984 252.34 396.984 252.88C396.984 253.42 397.329 253.868 397.808 254.044C397.804 254.502 397.799 254.963 397.791 255.43C396.971 255.63 396.36 256.363 396.36 257.244C396.36 258.076 396.907 258.772 397.657 259.016C397.636 259.368 397.612 259.711 397.585 260.043C396.72 260.319 396.089 261.119 396.089 262.075C396.089 262.766 396.423 263.374 396.929 263.766C395.585 267.134 391.684 267.551 391.259 267.764C390.791 267.998 389.976 269.166 389.976 269.166H390.005C376.769 273.799 365.187 288.475 362.856 300.258C360.051 314.439 364.259 323.79 364.259 323.79L361.892 325.348C361.892 325.348 363.947 328.154 363.947 330.647V332.088H364.648V351.686H398.233H431.815V332.088H432.521V330.647C432.521 328.154 434.575 325.348 434.575 325.348L432.201 323.79C432.201 323.79 436.415 314.439 433.615 300.258Z" fill="#152222"/>
<path d="M991.041 453.708H980.641V426.744C980.641 423.874 982.975 421.545 985.841 421.545C988.708 421.545 991.041 423.874 991.041 426.744V453.708ZM973.815 453.708H963.428V426.744C963.428 423.874 965.748 421.545 968.628 421.545C971.495 421.545 973.815 423.874 973.815 426.744V453.708ZM956.601 453.708H946.201V426.744C946.201 423.874 948.535 421.545 951.401 421.545C954.268 421.545 956.601 423.874 956.601 426.744V453.708ZM939.388 453.708H928.988V426.744C928.988 423.874 931.321 421.545 934.188 421.545C937.055 421.545 939.388 423.874 939.388 426.744V453.708ZM922.161 453.708H911.775V431.86H922.161V453.708ZM904.948 453.708H894.548V431.86H904.948V453.708ZM875.281 326.811V326.809H875.295C875.281 326.809 875.281 326.811 875.281 326.811ZM723.241 317.572H718.548V292.349C718.548 291.056 719.601 290.008 720.895 290.008C722.188 290.008 723.241 291.056 723.241 292.349V317.572ZM1000 453.708H997.855V426.744C997.855 425.02 998.708 423.504 1000 422.559V301.623C992.935 295.924 985.201 291.327 977.161 288.513H977.228C977.228 288.513 975.521 286.076 974.548 285.589C973.668 285.145 965.535 284.276 962.735 277.256C963.788 276.439 964.481 275.172 964.481 273.732C964.481 271.736 963.161 270.067 961.361 269.494C961.308 268.802 961.255 268.091 961.201 267.357C962.775 266.851 963.921 265.396 963.921 263.66C963.921 261.824 962.641 260.294 960.935 259.879C960.921 258.914 960.908 257.951 960.895 257.004C961.895 256.641 962.615 255.691 962.615 254.564C962.615 253.437 961.895 252.487 960.895 252.124C960.908 249.724 960.948 247.602 960.988 245.994C963.228 245.383 964.881 243.355 964.881 240.92C964.881 238.004 962.521 235.642 959.601 235.642C957.721 235.642 956.081 236.624 955.148 238.101C955.548 237.909 956.001 237.794 956.481 237.794C958.201 237.794 959.601 239.193 959.601 240.92C959.601 242.647 958.201 244.047 956.481 244.047C956.001 244.047 955.548 243.931 955.148 243.739C955.988 245.068 957.401 245.99 959.041 246.163C959.081 247.75 959.121 249.807 959.135 252.124C958.135 252.487 957.415 253.437 957.415 254.564C957.415 255.691 958.135 256.641 959.135 257.004C959.121 257.951 959.108 258.914 959.095 259.879C957.388 260.294 956.108 261.824 956.108 263.66C956.108 265.396 957.255 266.851 958.815 267.357C958.775 268.091 958.721 268.802 958.668 269.494C956.868 270.067 955.548 271.736 955.548 273.732C955.548 275.172 956.241 276.439 957.295 277.256C954.495 284.276 946.361 285.145 945.481 285.589C944.495 286.076 942.801 288.513 942.801 288.513H942.868C924.668 294.881 907.975 310.343 897.321 327.192C896.961 327.055 896.601 326.935 896.241 326.809H896.281C896.281 326.809 895.241 325.321 894.641 325.024C894.095 324.752 889.135 324.221 887.428 319.935C888.068 319.435 888.495 318.661 888.495 317.783C888.495 316.564 887.681 315.544 886.588 315.193C886.548 314.771 886.521 314.337 886.495 313.889C887.455 313.58 888.148 312.692 888.148 311.632C888.148 310.509 887.375 309.576 886.321 309.323C886.321 308.729 886.308 308.139 886.308 307.557C886.908 307.336 887.348 306.764 887.348 306.077C887.348 305.389 886.908 304.818 886.308 304.595C886.308 303.126 886.335 301.825 886.361 300.843C887.721 300.469 888.735 299.231 888.735 297.744C888.735 295.964 887.295 294.52 885.508 294.52C884.361 294.52 883.361 295.12 882.788 296.023C883.041 295.905 883.308 295.835 883.601 295.835C884.655 295.835 885.508 296.69 885.508 297.744C885.508 298.799 884.655 299.653 883.601 299.653C883.308 299.653 883.041 299.583 882.788 299.465C883.308 300.275 884.175 300.816 885.175 300.924C885.188 301.897 885.215 303.166 885.228 304.595C884.615 304.818 884.175 305.389 884.175 306.077C884.175 306.764 884.615 307.336 885.228 307.557C885.215 308.139 885.215 308.729 885.201 309.323C884.161 309.576 883.375 310.509 883.375 311.632C883.375 312.692 884.081 313.58 885.028 313.889C885.001 314.337 884.975 314.771 884.948 315.193C883.841 315.544 883.041 316.564 883.041 317.783C883.041 318.661 883.455 319.435 884.108 319.935C882.388 324.221 877.428 324.752 876.881 325.024C876.335 325.296 875.428 326.553 875.281 326.765V285.468L883.681 267.468H886.201V263.801H883.681V254.135H871.308V173.354L877.975 155.354H879.975V151.687H877.975V142.02H869.868V110.52L874.361 96.8535H876.201V92.8535H873.361V86.0202H871.388C865.055 86.0202 859.908 80.8815 859.908 74.5415V70.6868H862.081V67.6868H859.908V61.0202H862.081V58.0202H859.908V52.7242C863.468 51.2068 865.948 47.6815 865.948 43.5722C865.948 38.5322 862.201 34.3775 857.335 33.7242C857.295 33.0722 857.241 32.4042 857.201 31.7175C858.761 31.2108 859.908 29.7562 859.908 28.0202C859.908 26.1828 858.641 24.6535 856.921 24.2375C856.908 23.2722 856.895 22.3109 856.895 21.3629C857.895 21.0002 858.615 20.0508 858.615 18.9242C858.615 17.7975 857.895 16.8468 856.881 16.4842C856.908 14.0842 856.935 11.9602 856.975 10.3535C859.215 9.74284 860.868 7.7135 860.868 5.28017C860.868 2.36417 858.508 0.00019021 855.601 0.00019021C853.721 0.00019021 852.068 0.984184 851.135 2.46018C851.548 2.26818 851.988 2.15351 852.468 2.15351C854.201 2.15351 855.601 3.55217 855.601 5.28017C855.601 7.00684 854.201 8.40683 852.468 8.40683C851.988 8.40683 851.548 8.29086 851.135 8.09886C851.975 9.42686 853.401 10.3495 855.041 10.5228C855.068 12.1095 855.108 14.1668 855.121 16.4842C854.121 16.8468 853.401 17.7975 853.401 18.9242C853.401 20.0508 854.121 21.0002 855.121 21.3629C855.121 22.3109 855.108 23.2722 855.081 24.2375C853.375 24.6535 852.108 26.1828 852.108 28.0202C852.108 29.7562 853.241 31.2108 854.815 31.7175C854.775 32.4042 854.721 33.0722 854.668 33.7242C849.815 34.3775 846.055 38.5322 846.055 43.5722C846.055 47.6815 848.548 51.2068 852.108 52.7242V58.0202H849.935V61.0202H852.108V67.6868H849.935V70.6868H852.108V74.5415C852.108 80.8815 846.961 86.0202 840.628 86.0202H838.641V92.8535H835.815V96.8535H837.641L842.148 110.52V142.02H834.028V151.687H832.028V155.354H834.028L840.695 173.354V254.135H828.335V263.801H825.815V267.468H828.335L836.721 285.468H836.735V320.911C830.375 309.632 819.401 298.877 807.348 294.657H807.388C807.388 294.657 806.348 293.169 805.748 292.872C805.215 292.601 800.241 292.071 798.535 287.783C799.175 287.284 799.601 286.511 799.601 285.631C799.601 284.412 798.801 283.393 797.695 283.043C797.668 282.62 797.628 282.185 797.601 281.739C798.561 281.428 799.255 280.541 799.255 279.48C799.255 278.359 798.481 277.424 797.441 277.171C797.428 276.579 797.415 275.988 797.415 275.407C798.028 275.184 798.468 274.612 798.468 273.925C798.468 273.239 798.028 272.667 797.415 272.444C797.428 270.975 797.441 269.675 797.468 268.691C798.841 268.319 799.855 267.08 799.855 265.594C799.855 263.812 798.401 262.369 796.628 262.369C795.481 262.369 794.468 262.969 793.908 263.871C794.148 263.753 794.428 263.683 794.721 263.683C795.775 263.683 796.628 264.539 796.628 265.594C796.628 266.648 795.775 267.503 794.721 267.503C794.428 267.503 794.148 267.432 793.908 267.315C794.415 268.124 795.281 268.664 796.281 268.772C796.308 269.747 796.321 271.015 796.335 272.444C795.721 272.667 795.281 273.239 795.281 273.925C795.281 274.612 795.721 275.184 796.335 275.407C796.335 275.988 796.321 276.579 796.308 277.171C795.268 277.424 794.495 278.359 794.495 279.48C794.495 280.541 795.188 281.428 796.148 281.739C796.121 282.185 796.081 282.62 796.055 283.043C794.948 283.393 794.148 284.412 794.148 285.631C794.148 286.511 794.575 287.284 795.215 287.783C793.508 292.071 788.535 292.601 788.001 292.872C787.401 293.169 786.361 294.657 786.361 294.657H786.401C783.975 295.508 781.588 296.62 779.268 297.953C774.961 292.187 769.001 287.164 762.575 284.916H762.601C762.601 284.916 761.908 283.92 761.508 283.721C761.148 283.54 757.828 283.185 756.681 280.317C757.108 279.984 757.401 279.467 757.401 278.878C757.401 278.064 756.855 277.383 756.121 277.148C756.108 276.86 756.081 276.564 756.068 276.26C756.695 276.051 757.161 275.471 757.161 274.764C757.161 274.017 756.641 273.42 755.948 273.247C755.948 272.84 755.935 272.437 755.935 272.039C756.348 271.891 756.641 271.508 756.641 271.049C756.641 270.589 756.348 270.207 755.935 270.059C755.935 269.072 755.961 268.205 755.975 267.548C756.881 267.299 757.561 266.471 757.561 265.476C757.561 264.286 756.601 263.32 755.401 263.32C754.641 263.32 753.961 263.721 753.588 264.324C753.748 264.245 753.935 264.199 754.135 264.199C754.828 264.199 755.401 264.771 755.401 265.476C755.401 266.182 754.828 266.753 754.135 266.753C753.935 266.753 753.748 266.706 753.588 266.627C753.921 267.168 754.508 267.531 755.175 267.603C755.188 268.253 755.201 269.099 755.215 270.059C754.801 270.207 754.508 270.589 754.508 271.049C754.508 271.508 754.801 271.891 755.215 272.039C755.215 272.437 755.201 272.84 755.201 273.247C754.508 273.42 753.975 274.017 753.975 274.764C753.975 275.471 754.441 276.051 755.081 276.26C755.068 276.564 755.041 276.86 755.028 277.148C754.281 277.383 753.748 278.064 753.748 278.878C753.748 279.467 754.028 279.984 754.468 280.317C753.321 283.185 750.001 283.54 749.641 283.721C749.241 283.92 748.548 284.916 748.548 284.916H748.561C743.095 286.831 737.961 290.76 733.895 295.449V263.123L739.548 250.988H741.255V248.516H739.548V242H731.215V187.545L735.708 175.411H737.055V172.939H735.708V166.423H730.241V145.188L733.268 135.976H734.508V133.28H732.601V128.673H731.268C726.988 128.673 723.521 125.208 723.521 120.935V118.338H724.988V116.315H723.521V111.82H724.988V109.799H723.521V106.228C725.921 105.206 727.601 102.828 727.601 100.059C727.601 96.6615 725.068 93.8602 721.788 93.4202C721.761 92.9802 721.735 92.5309 721.695 92.0669C722.761 91.7255 723.521 90.7455 723.521 89.5748C723.521 88.3362 722.668 87.3055 721.521 87.0255C721.508 86.3748 721.495 85.7268 721.495 85.0882C722.161 84.8428 722.655 84.2028 722.655 83.4428C722.655 82.6842 722.161 82.0429 721.495 81.7989C721.495 80.1802 721.521 78.7495 721.548 77.6655C723.055 77.2549 724.175 75.8868 724.175 74.2455C724.175 72.2802 722.588 70.6868 720.615 70.6868C719.348 70.6868 718.241 71.3495 717.615 72.3455C717.881 72.2162 718.188 72.1375 718.508 72.1375C719.668 72.1375 720.615 73.0815 720.615 74.2455C720.615 75.4095 719.668 76.3535 718.508 76.3535C718.188 76.3535 717.881 76.2748 717.615 76.1455C718.175 77.0415 719.135 77.6628 720.241 77.7802C720.268 78.8495 720.295 80.2362 720.295 81.7989C719.628 82.0429 719.135 82.6842 719.135 83.4428C719.135 84.2028 719.628 84.8428 720.295 85.0882C720.295 85.7268 720.281 86.3748 720.268 87.0255C719.121 87.3055 718.268 88.3375 718.268 89.5748C718.268 90.7455 719.028 91.7255 720.095 92.0669C720.068 92.5309 720.028 92.9802 720.001 93.4202C716.721 93.8602 714.188 96.6615 714.188 100.059C714.188 102.828 715.868 105.206 718.268 106.228V109.799H716.801V111.82H718.268V116.315H716.801V118.338H718.268V120.935C718.268 125.208 714.801 128.673 710.521 128.673H709.188V133.28H707.281V135.976H708.521L711.548 145.188V166.423H706.081V172.939H704.735V175.411H706.081L710.575 187.545V242H702.241V248.516H700.535V250.988H702.241L707.895 263.123V321.844L702.241 333.978V363.112H739.548V355.177H751.268C752.161 360.896 753.628 364.196 753.628 364.196L750.615 366.18C750.615 366.18 753.228 369.751 753.228 372.926V374.76H754.121V399.709H796.881H828.335V433.797H883.681V431.86H885.761H890.001V460.529H960.015H1000V453.708Z" fill="#152222"/>
<path d="M36.576 453.708H26.18V426.744C26.18 423.874 28.508 421.545 31.3786 421.545C34.2493 421.545 36.576 423.874 36.576 426.744V453.708ZM19.3587 453.708H8.96263V426.744C8.96263 423.874 11.2893 421.545 14.16 421.545C17.0306 421.545 19.3587 423.874 19.3587 426.744V453.708ZM43.3986 426.744C43.3986 423.874 45.7253 421.545 48.596 421.545C51.4666 421.545 53.7947 423.874 53.7947 426.744V453.708H43.3986V426.744ZM60.6159 426.744C60.6159 423.874 62.944 421.545 65.8146 421.545C68.6853 421.545 71.012 423.874 71.012 426.744V453.708H60.6159V426.744ZM77.8346 431.86H88.2293V453.708H77.8346V431.86ZM95.0519 431.86H105.448V453.708H95.0519V431.86ZM124.716 326.809V326.811C124.715 326.811 124.712 326.809 124.711 326.809H124.716ZM276.765 292.349C276.765 291.056 277.812 290.008 279.105 290.008C280.397 290.008 281.445 291.056 281.445 292.349V317.572H276.765V292.349ZM109.996 460.529V431.86H116.319V433.797H171.669V399.709H203.125H245.879V374.76H246.772V372.926C246.772 369.751 249.388 366.18 249.388 366.18L246.375 364.196C246.375 364.196 247.843 360.896 248.729 355.177H260.449V363.112H297.761V333.978L292.1 321.844V263.123L297.761 250.988H299.459V248.516H297.761V242H289.423V187.545L293.916 175.411H295.264V172.939H293.916V166.423H288.449V145.188L291.483 135.976H292.719V133.28H290.808V128.673H289.475C285.2 128.673 281.736 125.208 281.736 120.935V118.338H283.201V116.315H281.736V111.82H283.201V109.799H281.736V106.228C284.132 105.206 285.811 102.828 285.811 100.059C285.811 96.6615 283.281 93.8602 280.005 93.4202C279.971 92.9802 279.939 92.5309 279.911 92.0669C280.967 91.7255 281.736 90.7455 281.736 89.5748C281.736 88.3375 280.877 87.3055 279.725 87.0255C279.713 86.3748 279.705 85.7268 279.7 85.0882C280.375 84.8428 280.86 84.2028 280.86 83.4428C280.86 82.6842 280.375 82.0429 279.699 81.7989C279.709 80.2362 279.733 78.8495 279.757 77.7802C280.864 77.6628 281.82 77.0415 282.387 76.1455C282.113 76.2748 281.812 76.3535 281.489 76.3535C280.325 76.3535 279.381 75.4095 279.381 74.2455C279.381 73.0815 280.325 72.1375 281.489 72.1375C281.812 72.1375 282.113 72.2162 282.387 72.3455C281.756 71.3495 280.648 70.6868 279.381 70.6868C277.416 70.6868 275.823 72.2802 275.823 74.2455C275.823 75.8868 276.94 77.2549 278.451 77.6655C278.475 78.7495 278.5 80.1802 278.511 81.7989C277.836 82.0429 277.351 82.6842 277.351 83.4428C277.351 84.2028 277.835 84.8428 278.511 85.0882C278.505 85.7268 278.497 86.3748 278.485 87.0255C277.332 87.3055 276.475 88.3362 276.475 89.5748C276.475 90.7455 277.243 91.7255 278.3 92.0669C278.272 92.5309 278.24 92.9802 278.205 93.4202C274.928 93.8602 272.399 96.6615 272.399 100.059C272.399 102.828 274.079 105.206 276.475 106.228V109.799H275.009V111.82H276.475V116.315H275.009V118.338H276.475V120.935C276.475 125.208 273.009 128.673 268.736 128.673H267.401V133.28H265.492V135.976H266.728L269.761 145.188V166.423H264.293V172.939H262.945V175.411H264.293L268.788 187.545V242H260.449V248.516H258.751V250.988H260.449L266.109 263.123V295.448C262.043 290.76 256.905 286.831 251.432 284.916H251.457C251.457 284.916 250.763 283.92 250.364 283.721C250.003 283.54 246.681 283.185 245.536 280.317C245.968 279.984 246.251 279.467 246.251 278.878C246.251 278.064 245.715 277.383 244.979 277.148C244.955 276.86 244.935 276.564 244.916 276.26C245.553 276.051 246.021 275.471 246.021 274.764C246.021 274.017 245.497 273.42 244.804 273.247C244.796 272.84 244.791 272.437 244.788 272.039C245.196 271.891 245.489 271.508 245.489 271.049C245.489 270.589 245.195 270.207 244.787 270.059C244.793 269.099 244.808 268.253 244.821 267.603C245.491 267.531 246.072 267.168 246.415 266.627C246.249 266.706 246.067 266.753 245.872 266.753C245.167 266.753 244.595 266.182 244.595 265.476C244.595 264.771 245.167 264.199 245.872 264.199C246.067 264.199 246.249 264.245 246.415 264.324C246.033 263.721 245.361 263.32 244.595 263.32C243.404 263.32 242.439 264.286 242.439 265.476C242.439 266.471 243.115 267.299 244.029 267.548C244.045 268.205 244.06 269.072 244.067 270.059C243.659 270.207 243.363 270.589 243.363 271.049C243.363 271.508 243.657 271.891 244.065 272.039C244.063 272.437 244.057 272.84 244.049 273.247C243.356 273.42 242.832 274.017 242.832 274.764C242.832 275.471 243.3 276.051 243.937 276.26C243.919 276.564 243.899 276.86 243.875 277.148C243.139 277.383 242.603 278.064 242.603 278.878C242.603 279.467 242.885 279.984 243.317 280.317C242.172 283.185 238.851 283.54 238.488 283.721C238.091 283.92 237.396 284.916 237.396 284.916H237.421C230.999 287.164 225.037 292.187 220.727 297.953C218.413 296.62 216.028 295.508 213.599 294.657H213.636C213.636 294.657 212.599 293.169 212.003 292.872C211.461 292.601 206.495 292.071 204.783 287.783C205.429 287.284 205.853 286.511 205.853 285.631C205.853 284.412 205.048 283.393 203.947 283.043C203.912 282.62 203.881 282.185 203.855 281.739C204.812 281.428 205.508 280.54 205.508 279.48C205.508 278.359 204.731 277.424 203.687 277.171C203.676 276.579 203.668 275.988 203.664 275.407C204.273 275.184 204.715 274.612 204.715 273.925C204.715 273.239 204.273 272.667 203.663 272.444C203.672 271.015 203.695 269.747 203.716 268.772C204.716 268.664 205.585 268.124 206.097 267.315C205.851 267.432 205.577 267.503 205.285 267.503C204.231 267.503 203.376 266.648 203.376 265.594C203.376 264.539 204.231 263.683 205.285 263.683C205.577 263.683 205.851 263.753 206.097 263.871C205.527 262.969 204.523 262.369 203.376 262.369C201.595 262.369 200.152 263.812 200.152 265.594C200.152 267.08 201.164 268.319 202.532 268.691C202.555 269.675 202.577 270.975 202.587 272.444C201.976 272.667 201.535 273.239 201.535 273.925C201.535 274.612 201.976 275.184 202.585 275.407C202.581 275.988 202.573 276.579 202.563 277.171C201.519 277.424 200.741 278.359 200.741 279.48C200.741 280.54 201.439 281.428 202.395 281.739C202.368 282.185 202.337 282.62 202.304 283.043C201.201 283.393 200.397 284.412 200.397 285.631C200.397 286.511 200.82 287.284 201.467 287.783C199.755 292.071 194.788 292.601 194.247 292.872C193.651 293.169 192.613 294.657 192.613 294.657H192.651C180.597 298.877 169.629 309.632 163.272 320.911V285.468L171.669 267.468H174.188V263.801H171.669V254.135H159.299V173.354L165.965 155.354H167.965V151.687H165.965V142.02H157.856V110.52L162.356 96.8535H164.189V92.8535H161.356V86.0202H159.376C153.036 86.0202 147.897 80.8815 147.897 74.5415V70.6868H150.069V67.6868H147.897V61.0202H150.069V58.0202H147.897V52.7242C151.451 51.2068 153.941 47.6815 153.941 43.5722C153.941 38.5322 150.191 34.3775 145.329 33.7242C145.277 33.0722 145.231 32.4042 145.189 31.7175C146.756 31.2108 147.897 29.7562 147.897 28.0202C147.897 26.1828 146.623 24.6535 144.913 24.2375C144.896 23.2722 144.884 22.3109 144.876 21.3629C145.877 21.0002 146.597 20.0508 146.597 18.9242C146.597 17.7975 145.877 16.8468 144.875 16.4842C144.891 14.1668 144.925 12.1095 144.961 10.5228C146.604 10.3495 148.02 9.42686 148.863 8.09886C148.457 8.29086 148.009 8.40683 147.532 8.40683C145.804 8.40683 144.404 7.00684 144.404 5.28017C144.404 3.55217 145.804 2.15351 147.532 2.15351C148.009 2.15351 148.457 2.26818 148.863 2.46018C147.927 0.984184 146.283 0.00019021 144.404 0.00019021C141.489 0.00019021 139.125 2.36417 139.125 5.28017C139.125 7.7135 140.783 9.74284 143.024 10.3535C143.06 11.9602 143.097 14.0842 143.113 16.4842C142.111 16.8468 141.391 17.7975 141.391 18.9242C141.391 20.0508 142.111 21.0002 143.112 21.3629C143.104 22.3109 143.092 23.2722 143.075 24.2375C141.365 24.6535 140.091 26.1828 140.091 28.0202C140.091 29.7562 141.232 31.2108 142.799 31.7175C142.757 32.4042 142.711 33.0722 142.659 33.7242C137.797 34.3775 134.045 38.5322 134.045 43.5722C134.045 47.6815 136.537 51.2068 140.091 52.7242V58.0202H137.919V61.0202H140.091V67.6868H137.919V70.6868H140.091V74.5415C140.091 80.8815 134.952 86.0202 128.612 86.0202H126.632V92.8535H123.799V96.8535H125.632L130.132 110.52V142.02H122.023V151.687H120.023V155.354H122.023L128.689 173.354V254.135H116.319V263.801H113.8V267.468H116.319L124.716 285.468V326.765C124.565 326.552 123.659 325.296 123.115 325.024C122.572 324.752 117.607 324.221 115.895 319.935C116.54 319.435 116.964 318.661 116.964 317.783C116.964 316.564 116.16 315.544 115.057 315.193C115.023 314.771 114.992 314.337 114.965 313.889C115.923 313.58 116.62 312.692 116.62 311.632C116.62 310.509 115.841 309.576 114.797 309.323C114.787 308.729 114.779 308.139 114.775 307.557C115.385 307.336 115.825 306.764 115.825 306.077C115.825 305.389 115.384 304.818 114.773 304.596C114.784 303.166 114.805 301.897 114.827 300.924C115.827 300.816 116.696 300.275 117.209 299.465C116.961 299.583 116.688 299.653 116.396 299.653C115.341 299.653 114.487 298.799 114.487 297.744C114.487 296.69 115.341 295.835 116.396 295.835C116.688 295.835 116.961 295.905 117.209 296.023C116.637 295.12 115.633 294.52 114.487 294.52C112.707 294.52 111.263 295.964 111.263 297.744C111.263 299.231 112.275 300.469 113.643 300.843C113.665 301.825 113.688 303.127 113.697 304.596C113.088 304.818 112.645 305.389 112.645 306.077C112.645 306.764 113.087 307.336 113.697 307.557C113.692 308.139 113.685 308.729 113.675 309.323C112.631 309.576 111.852 310.509 111.852 311.632C111.852 312.692 112.549 313.58 113.507 313.889C113.479 314.337 113.448 314.771 113.415 315.193C112.312 315.544 111.508 316.564 111.508 317.783C111.508 318.661 111.931 319.435 112.577 319.935C110.865 324.221 105.9 324.752 105.357 325.024C104.763 325.321 103.724 326.809 103.724 326.809H103.761C103.401 326.935 103.04 327.055 102.681 327.192C92.028 310.343 75.3333 294.881 57.1387 288.513H57.1986C57.1986 288.513 55.5 286.076 54.5253 285.589C53.6373 285.145 45.5067 284.276 42.7027 277.256C43.7613 276.439 44.4546 275.172 44.4546 273.732C44.4546 271.736 43.1373 270.067 41.332 269.494C41.276 268.802 41.2266 268.091 41.1813 267.357C42.7493 266.851 43.8906 265.396 43.8906 263.66C43.8906 261.824 42.616 260.294 40.9066 259.879C40.8893 258.914 40.8773 257.951 40.8693 257.004C41.8707 256.641 42.5906 255.691 42.5906 254.564C42.5906 253.437 41.8706 252.487 40.868 252.124C40.884 249.807 40.9186 247.75 40.9546 246.163C42.596 245.99 44.0133 245.068 44.856 243.739C44.4507 243.931 44.0026 244.047 43.524 244.047C41.7973 244.047 40.3973 242.647 40.3973 240.92C40.3973 239.193 41.7973 237.794 43.524 237.794C44.0026 237.794 44.4507 237.909 44.856 238.101C43.92 236.624 42.276 235.642 40.3973 235.642C37.4827 235.642 35.1186 238.004 35.1186 240.92C35.1186 243.355 36.7759 245.383 39.0159 245.994C39.0533 247.602 39.0893 249.724 39.1066 252.124C38.104 252.487 37.384 253.437 37.384 254.564C37.384 255.691 38.104 256.641 39.1053 257.004C39.0973 257.951 39.0853 258.914 39.0667 259.879C37.3587 260.294 36.084 261.824 36.084 263.66C36.084 265.396 37.2253 266.851 38.792 267.357C38.748 268.091 38.6973 268.802 38.6426 269.494C36.8373 270.067 35.52 271.736 35.52 273.732C35.52 275.172 36.2133 276.439 37.272 277.256C34.468 284.276 26.3373 285.145 25.4493 285.589C24.4746 286.076 22.776 288.513 22.776 288.513H22.836C14.8 291.327 7.06 295.924 0 301.623V422.559C1.292 423.504 2.13997 425.02 2.13997 426.744V453.708H0V460.529H39.9867H109.996Z" fill="#152222"/>
<path d="M601.761 351.686H635.348V332.088H636.054V330.647C636.054 328.154 638.108 325.348 638.108 325.348L635.748 323.79C635.748 323.79 639.948 314.439 637.148 300.258C634.814 288.475 623.228 273.799 610.001 269.166H610.028C610.028 269.166 609.215 267.998 608.735 267.764C608.321 267.551 604.415 267.134 603.068 263.766C603.575 263.374 603.908 262.766 603.908 262.075C603.908 261.119 603.281 260.319 602.414 260.043C602.388 259.711 602.361 259.368 602.348 259.016C603.094 258.772 603.641 258.076 603.641 257.244C603.641 256.363 603.028 255.63 602.214 255.43C602.201 254.963 602.201 254.502 602.188 254.044C602.668 253.868 603.014 253.42 603.014 252.88C603.014 252.34 602.668 251.891 602.188 251.718C602.201 250.558 602.214 249.542 602.228 248.768C603.308 248.476 604.108 247.503 604.108 246.335C604.108 244.936 602.975 243.803 601.575 243.803C600.668 243.803 599.881 244.274 599.428 244.983C599.628 244.891 599.841 244.835 600.068 244.835C600.895 244.835 601.575 245.507 601.575 246.335C601.575 247.163 600.895 247.835 600.068 247.835C599.841 247.835 599.628 247.779 599.428 247.687C599.828 248.323 600.521 248.748 601.308 248.832C601.321 249.598 601.334 250.591 601.348 251.718C600.868 251.891 600.521 252.34 600.521 252.88C600.521 253.42 600.868 253.868 601.348 254.044C601.334 254.502 601.334 254.963 601.321 255.43C600.508 255.63 599.894 256.363 599.894 257.244C599.894 258.076 600.441 258.772 601.188 259.016C601.174 259.368 601.148 259.711 601.121 260.043C600.254 260.319 599.628 261.119 599.628 262.075C599.628 262.766 599.961 263.374 600.468 263.766C599.121 267.134 595.214 267.551 594.788 267.764C594.321 267.998 593.508 269.166 593.508 269.166H593.535C580.308 273.799 568.721 288.475 566.388 300.258C563.588 314.439 567.788 323.79 567.788 323.79L565.428 325.348C565.428 325.348 567.481 328.154 567.481 330.647V332.088H568.188V351.686H601.761Z" fill="#152222"/>
<path d="M923.015 388.407H917.281V357.528C917.281 355.945 918.561 354.663 920.148 354.663C921.721 354.663 923.015 355.945 923.015 357.528V388.407ZM216.477 331.82H210.747V300.94C210.747 299.357 212.029 298.075 213.612 298.075C215.195 298.075 216.477 299.357 216.477 300.94V331.82ZM82.7213 388.407H76.9906V357.528C76.9906 355.945 78.2733 354.663 79.856 354.663C81.4387 354.663 82.7213 355.945 82.7213 357.528V388.407ZM979.601 414.135H979.628C979.628 414.135 978.775 412.907 978.281 412.661C977.828 412.437 973.735 411.998 972.321 408.461C972.855 408.049 973.201 407.41 973.201 406.685C973.201 405.68 972.548 404.839 971.628 404.549C971.601 404.2 971.575 403.841 971.561 403.472C972.348 403.217 972.921 402.484 972.921 401.609C972.921 400.684 972.281 399.912 971.415 399.703C971.415 399.215 971.401 398.727 971.401 398.247C971.908 398.064 972.268 397.592 972.268 397.025C972.268 396.457 971.908 395.985 971.401 395.803C971.401 394.591 971.428 393.517 971.441 392.705C972.575 392.397 973.415 391.374 973.415 390.148C973.415 388.679 972.215 387.488 970.748 387.488C969.801 387.488 968.975 387.983 968.495 388.728C968.708 388.631 968.935 388.572 969.175 388.572C970.041 388.572 970.748 389.279 970.748 390.148C970.748 391.019 970.041 391.724 969.175 391.724C968.935 391.724 968.708 391.665 968.495 391.569C968.921 392.237 969.641 392.684 970.468 392.772C970.481 393.576 970.508 394.622 970.508 395.803C970.001 395.985 969.641 396.457 969.641 397.025C969.641 397.592 970.001 398.064 970.508 398.247C970.508 398.727 970.495 399.215 970.495 399.703C969.628 399.912 968.988 400.684 968.988 401.609C968.988 402.484 969.561 403.217 970.348 403.472C970.335 403.841 970.308 404.2 970.281 404.549C969.361 404.839 968.708 405.68 968.708 406.685C968.708 407.41 969.055 408.049 969.588 408.461C968.175 411.998 964.081 412.437 963.628 412.661C963.135 412.907 962.281 414.135 962.281 414.135H962.308C955.001 416.693 948.175 422.165 942.988 428.585V408.492L936.055 393.637V321.748L942.988 306.893H945.068V303.867H942.988V295.889H932.775V229.223L938.281 214.368H939.921V211.341H938.281V203.364H931.588V177.368L935.295 166.089H936.815V162.789H934.468V157.149H932.841C927.601 157.149 923.361 152.908 923.361 147.676V144.495H925.161V142.02H923.361V136.517H925.161V134.041H923.361V129.671C926.295 128.419 928.348 125.509 928.348 122.119C928.348 117.959 925.255 114.531 921.241 113.991C921.201 113.453 921.161 112.901 921.135 112.335C922.428 111.916 923.361 110.716 923.361 109.284C923.361 107.768 922.308 106.505 920.908 106.163C920.895 105.365 920.881 104.572 920.868 103.791C921.695 103.491 922.295 102.707 922.295 101.777C922.295 100.847 921.695 100.063 920.868 99.764C920.881 97.7827 920.921 96.0307 920.948 94.704C922.788 94.2 924.161 92.5253 924.161 90.5173C924.161 88.1107 922.215 86.16 919.801 86.16C918.255 86.16 916.895 86.972 916.121 88.1907C916.455 88.032 916.828 87.936 917.228 87.936C918.655 87.936 919.801 89.092 919.801 90.5173C919.801 91.9413 918.655 93.0974 917.228 93.0974C916.828 93.0974 916.455 93.0013 916.121 92.844C916.815 93.94 917.988 94.7 919.348 94.844C919.375 96.1533 919.401 97.8507 919.415 99.764C918.588 100.063 918.001 100.847 918.001 101.777C918.001 102.707 918.588 103.491 919.415 103.791C919.415 104.572 919.401 105.365 919.388 106.163C917.975 106.505 916.921 107.768 916.921 109.284C916.921 110.716 917.868 111.916 919.161 112.335C919.121 112.901 919.081 113.453 919.041 113.991C915.028 114.531 911.935 117.959 911.935 122.119C911.935 125.509 913.988 128.419 916.921 129.671V134.041H915.135V136.517H916.921V142.02H915.135V144.495H916.921V147.676C916.921 152.908 912.681 157.149 907.455 157.149H905.815V162.789H903.481V166.089H904.988L908.708 177.368V203.364H902.015V211.341H900.361V214.368H902.015L907.508 229.223V295.889H897.308V303.867H895.228V306.893H897.308L904.228 321.748V393.637L897.308 408.492V426.325H875.855V413.023H876.588V411.508C876.588 408.888 878.748 405.941 878.748 405.941L876.268 404.304C876.268 404.304 880.681 394.48 877.735 379.58C875.295 367.203 863.121 351.784 849.215 346.916H849.241C849.241 346.916 848.388 345.688 847.895 345.443C847.455 345.219 843.348 344.781 841.935 341.243C842.481 340.831 842.828 340.192 842.828 339.467C842.828 338.461 842.161 337.62 841.255 337.331C841.228 336.981 841.201 336.624 841.175 336.255C841.961 335.998 842.535 335.267 842.535 334.391C842.535 333.465 841.895 332.695 841.041 332.485C841.028 331.996 841.028 331.509 841.015 331.029C841.521 330.845 841.881 330.373 841.881 329.807C841.881 329.24 841.521 328.768 841.015 328.584C841.028 327.372 841.041 326.299 841.068 325.487C842.188 325.18 843.028 324.157 843.028 322.931C843.028 321.46 841.841 320.269 840.361 320.269C839.415 320.269 838.588 320.765 838.121 321.509C838.321 321.412 838.548 321.355 838.788 321.355C839.655 321.355 840.361 322.06 840.361 322.931C840.361 323.8 839.655 324.505 838.788 324.505C838.548 324.505 838.321 324.448 838.121 324.351C838.548 325.019 839.255 325.465 840.081 325.555C840.108 326.357 840.121 327.404 840.135 328.584C839.628 328.768 839.255 329.24 839.255 329.807C839.255 330.373 839.628 330.845 840.135 331.029C840.121 331.509 840.121 331.996 840.108 332.485C839.241 332.695 838.601 333.465 838.601 334.391C838.601 335.267 839.175 335.998 839.975 336.255C839.948 336.624 839.921 336.981 839.895 337.331C838.988 337.62 838.321 338.461 838.321 339.467C838.321 340.192 838.668 340.831 839.201 341.243C837.788 344.781 833.695 345.219 833.241 345.443C832.761 345.688 831.895 346.916 831.895 346.916H831.935C822.895 350.077 814.601 357.684 809.228 366.025V351.904L802.295 337.049V265.16L809.228 250.304H811.308V247.279H809.228V239.301H799.015V172.635L804.521 157.78H806.175V154.753H804.521V146.776H797.828V120.78L801.535 109.501H803.055V106.2H800.721V100.561H799.081C793.855 100.561 789.615 96.32 789.615 91.088V87.9067H791.401V85.432H789.615V79.9294H791.401V77.4533H789.615V73.0827C792.548 71.8307 794.601 68.9214 794.601 65.5307C794.601 61.3707 791.495 57.9427 787.495 57.4027C787.441 56.8654 787.401 56.3133 787.375 55.7467C788.668 55.328 789.615 54.128 789.615 52.696C789.615 51.18 788.561 49.9173 787.148 49.5747C787.135 48.7773 787.121 47.984 787.121 47.2027C787.948 46.9027 788.535 46.1187 788.535 45.1893C788.535 44.2587 787.948 43.4747 787.121 43.176C787.135 41.1947 787.161 39.4427 787.188 38.116C789.041 37.612 790.401 35.9374 790.401 33.9294C790.401 31.5227 788.455 29.572 786.055 29.572C784.495 29.572 783.148 30.384 782.375 31.6027C782.708 31.444 783.068 31.348 783.468 31.348C784.895 31.348 786.055 32.504 786.055 33.9294C786.055 35.3534 784.895 36.5093 783.468 36.5093C783.068 36.5093 782.708 36.4133 782.375 36.256C783.068 37.352 784.228 38.112 785.588 38.256C785.615 39.5653 785.641 41.2627 785.655 43.176C784.828 43.4747 784.241 44.2587 784.241 45.1893C784.241 46.1187 784.828 46.9027 785.655 47.2027C785.655 47.984 785.641 48.7773 785.628 49.5747C784.215 49.9173 783.161 51.18 783.161 52.696C783.161 54.128 784.108 55.328 785.401 55.7467C785.361 56.3133 785.335 56.8654 785.281 57.4027C781.268 57.9427 778.175 61.3707 778.175 65.5307C778.175 68.9214 780.228 71.8307 783.161 73.0827V77.4533H781.375V79.9294H783.161V85.432H781.375V87.9067H783.161V91.088C783.161 96.32 778.921 100.561 773.695 100.561H772.055V106.2H769.721V109.501H771.228L774.948 120.78V146.776H768.255V154.753H766.601V157.78H768.255L773.761 172.635V239.301H763.548V247.279H761.468V250.304H763.548L770.481 265.16V337.049L764.921 348.971C764.895 348.829 764.868 348.691 764.841 348.545C764.055 344.557 760.135 339.598 755.641 338.044H755.681C755.681 338.044 755.415 337.649 755.255 337.571C755.095 337.492 753.521 337.333 753.228 335.86C752.935 334.386 752.895 330.872 752.895 330.872C752.895 330.872 752.855 334.386 752.561 335.86C752.268 337.333 750.695 337.492 750.535 337.571C750.388 337.649 750.108 338.044 750.108 338.044H750.148C748.095 338.756 746.175 340.19 744.601 341.908V326.715H745.801V324.235C745.801 319.945 749.348 315.12 749.348 315.12L745.268 312.439C745.268 312.439 752.508 296.352 747.681 271.955C743.668 251.687 723.748 226.439 700.975 218.469H701.028C701.028 218.469 699.628 216.459 698.815 216.056C698.095 215.689 691.375 214.972 689.068 209.179C689.935 208.504 690.508 207.459 690.508 206.271C690.508 204.624 689.428 203.245 687.935 202.772C687.881 202.201 687.841 201.615 687.815 201.009C689.108 200.592 690.041 199.392 690.041 197.959C690.041 196.443 688.988 195.18 687.588 194.837C687.561 194.041 687.561 193.247 687.548 192.465C688.375 192.167 688.975 191.381 688.975 190.452C688.975 189.523 688.375 188.737 687.548 188.439C687.561 186.457 687.588 184.705 687.628 183.379C689.468 182.875 690.841 181.201 690.841 179.192C690.841 176.785 688.895 174.835 686.481 174.835C684.935 174.835 683.575 175.647 682.801 176.865C683.135 176.707 683.508 176.612 683.908 176.612C685.335 176.612 686.481 177.767 686.481 179.192C686.481 180.617 685.335 181.772 683.908 181.772C683.508 181.772 683.135 181.677 682.801 181.519C683.495 182.615 684.668 183.376 686.028 183.519C686.055 184.828 686.081 186.525 686.095 188.439C685.268 188.737 684.681 189.523 684.681 190.452C684.681 191.381 685.268 192.167 686.095 192.465C686.095 193.247 686.081 194.041 686.068 194.837C684.655 195.18 683.601 196.443 683.601 197.959C683.601 199.392 684.548 200.592 685.841 201.009C685.801 201.615 685.761 202.201 685.708 202.772C684.228 203.245 683.135 204.624 683.135 206.271C683.135 207.459 683.708 208.504 684.588 209.179C682.268 214.972 675.561 215.689 674.828 216.056C674.028 216.459 672.615 218.469 672.615 218.469H672.668C649.895 226.439 629.975 251.687 625.961 271.955C621.135 296.352 628.375 312.439 628.375 312.439L624.308 315.12C624.308 315.12 627.828 319.925 627.841 324.208C627.175 324.667 626.428 324.769 626.308 324.828C626.108 324.927 625.761 325.423 625.761 325.423H625.815C620.935 327.115 616.575 332.019 614.855 336.557C612.935 333.379 609.801 330.417 606.388 329.229H606.428C606.428 329.229 606.121 328.788 605.935 328.7C605.761 328.611 604.001 328.435 603.668 326.785C603.348 325.135 603.308 321.201 603.308 321.201C603.308 321.201 603.255 325.135 602.935 326.785C602.601 328.435 600.841 328.611 600.668 328.7C600.495 328.788 600.175 329.229 600.175 329.229H600.228C598.095 329.967 596.095 331.388 594.415 333.117C592.228 329.755 588.881 326.688 585.228 325.423H585.281C585.281 325.423 584.935 324.927 584.735 324.828C584.535 324.729 582.561 324.531 582.188 322.679C581.828 320.828 581.775 316.415 581.775 316.415C581.775 316.415 581.735 320.828 581.361 322.679C581.055 324.24 579.615 324.623 579.041 324.764V314.305H580.695V310.912C580.695 305.044 585.535 298.441 585.535 298.441L579.961 294.775C579.961 294.775 589.868 272.767 583.255 239.389C577.775 211.679 550.548 177.143 519.428 166.216C519.428 166.216 517.508 163.465 516.415 162.915C515.415 162.413 506.228 161.432 503.068 153.505C504.255 152.584 505.041 151.153 505.041 149.527C505.041 147.275 503.561 145.389 501.521 144.743C501.455 143.961 501.401 143.157 501.348 142.331C503.121 141.759 504.401 140.117 504.401 138.157C504.401 136.083 502.975 134.355 501.041 133.887C501.015 132.796 501.001 131.711 501.001 130.641C502.121 130.232 502.935 129.159 502.935 127.887C502.935 126.615 502.121 125.541 501.001 125.132C501.015 122.515 501.055 120.192 501.095 118.401C502.948 118.205 504.548 117.164 505.495 115.665C505.041 115.881 504.535 116.012 503.988 116.012C502.041 116.012 500.468 114.432 500.468 112.481C500.468 110.532 502.041 108.952 503.988 108.952C504.535 108.952 505.041 109.083 505.495 109.299C504.441 107.632 502.588 106.521 500.468 106.521C497.175 106.521 494.508 109.191 494.508 112.481C494.508 115.233 496.375 117.543 498.908 118.229C498.948 120.041 498.988 122.432 499.001 125.132C497.868 125.541 497.055 126.615 497.055 127.887C497.055 129.159 497.868 130.232 499.001 130.641C499.001 131.711 498.975 132.796 498.961 133.887C497.028 134.355 495.588 136.083 495.588 138.157C495.588 140.117 496.881 141.759 498.655 142.331C498.601 143.157 498.548 143.961 498.481 144.743C496.441 145.389 494.961 147.275 494.961 149.527C494.961 151.153 495.735 152.584 496.935 153.505C493.775 161.432 484.588 162.413 483.588 162.915C482.481 163.465 480.561 166.216 480.561 166.216H480.575C449.441 177.143 422.221 211.679 416.74 239.389C410.137 272.767 420.041 294.775 420.041 294.775L414.471 298.441C414.471 298.441 419.307 305.044 419.307 310.912V314.305H420.957V324.764C420.389 324.623 418.944 324.24 418.636 322.679C418.271 320.828 418.221 316.415 418.221 316.415C418.221 316.415 418.172 320.828 417.807 322.679C417.441 324.531 415.461 324.729 415.263 324.828C415.065 324.927 414.719 325.423 414.719 325.423H414.767C411.117 326.688 407.768 329.755 405.588 333.117C403.907 331.388 401.9 329.967 399.777 329.229H399.819C399.819 329.229 399.511 328.788 399.335 328.7C399.157 328.611 397.393 328.435 397.068 326.785C396.741 325.135 396.697 321.201 396.697 321.201C396.697 321.201 396.653 325.135 396.328 326.785C396.001 328.435 394.237 328.611 394.061 328.7C393.884 328.788 393.576 329.229 393.576 329.229H393.619C390.196 330.417 387.065 333.379 385.139 336.557C383.419 332.019 379.068 327.115 374.189 325.423H374.237C374.237 325.423 373.891 324.927 373.693 324.828C373.575 324.769 372.825 324.667 372.16 324.208C372.175 319.925 375.695 315.12 375.695 315.12L371.623 312.439C371.623 312.439 378.861 296.352 374.036 271.955C370.027 251.687 350.1 226.439 327.331 218.469H327.38C327.38 218.469 325.979 216.459 325.173 216.056C324.441 215.689 317.731 214.972 315.417 209.179C316.291 208.504 316.863 207.459 316.863 206.271C316.863 204.624 315.776 203.245 314.287 202.772C314.24 202.201 314.199 201.615 314.163 201.009C315.456 200.592 316.397 199.392 316.397 197.959C316.397 196.443 315.347 195.18 313.936 194.837C313.921 194.041 313.911 193.247 313.904 192.465C314.731 192.167 315.325 191.381 315.325 190.452C315.325 189.523 314.731 188.737 313.904 188.439C313.916 186.525 313.945 184.828 313.975 183.519C315.329 183.376 316.5 182.615 317.195 181.519C316.86 181.677 316.491 181.772 316.096 181.772C314.671 181.772 313.515 180.617 313.515 179.192C313.515 177.767 314.671 176.612 316.096 176.612C316.491 176.612 316.86 176.707 317.195 176.865C316.421 175.647 315.065 174.835 313.515 174.835C311.109 174.835 309.159 176.785 309.159 179.192C309.159 181.201 310.525 182.875 312.375 183.379C312.405 184.705 312.436 186.457 312.449 188.439C311.623 188.737 311.028 189.523 311.028 190.452C311.028 191.381 311.621 192.167 312.448 192.465C312.441 193.247 312.432 194.041 312.417 194.837C311.007 195.18 309.956 196.443 309.956 197.959C309.956 199.392 310.897 200.592 312.191 201.009C312.153 201.615 312.112 202.201 312.067 202.772C310.576 203.245 309.489 204.624 309.489 206.271C309.489 207.459 310.061 208.504 310.935 209.179C308.621 214.972 301.912 215.689 301.179 216.056C300.375 216.459 298.972 218.469 298.972 218.469H299.023C276.252 226.439 256.327 251.687 252.317 271.955C247.492 296.352 254.731 312.439 254.731 312.439L250.659 315.12C250.659 315.12 254.193 319.945 254.193 324.235V326.715H255.4V341.895C253.832 340.179 251.904 338.755 249.855 338.044H249.892C249.892 338.044 249.617 337.649 249.46 337.571C249.301 337.492 247.725 337.333 247.435 335.86C247.144 334.386 247.104 330.872 247.104 330.872C247.104 330.872 247.064 334.386 246.773 335.86C246.483 337.333 244.907 337.492 244.748 337.571C244.591 337.649 244.315 338.044 244.315 338.044H244.353C239.872 339.598 235.944 344.557 235.156 348.545C235.127 348.691 235.107 348.829 235.083 348.971L229.521 337.049V265.16L236.451 250.304H238.531V247.279H236.451V239.301H226.243V172.635L231.744 157.78H233.395V154.753H231.744V146.776H225.052V120.78L228.765 109.501H230.279V106.2H227.94V100.561H226.307C221.075 100.561 216.833 96.32 216.833 91.088V87.9067H218.627V85.432H216.833V79.9294H218.627V77.4533H216.833V73.0827C219.765 71.8307 221.821 68.9214 221.821 65.5307C221.821 61.3707 218.725 57.9427 214.713 57.4027C214.671 56.8654 214.632 56.3133 214.597 55.7467C215.891 55.328 216.833 54.128 216.833 52.696C216.833 51.18 215.781 49.9173 214.371 49.5747C214.356 48.7773 214.347 47.984 214.34 47.2027C215.167 46.9027 215.76 46.1187 215.76 45.1893C215.76 44.2587 215.165 43.4747 214.339 43.176C214.352 41.2627 214.381 39.5653 214.409 38.256C215.765 38.112 216.935 37.352 217.629 36.256C217.295 36.4133 216.925 36.5093 216.531 36.5093C215.107 36.5093 213.951 35.3534 213.951 33.9294C213.951 32.504 215.107 31.348 216.531 31.348C216.925 31.348 217.295 31.444 217.629 31.6027C216.857 30.384 215.5 29.572 213.951 29.572C211.544 29.572 209.595 31.5227 209.595 33.9294C209.595 35.9374 210.961 37.612 212.811 38.116C212.841 39.4427 212.872 41.1947 212.885 43.176C212.057 43.4747 211.464 44.2587 211.464 45.1893C211.464 46.1187 212.057 46.9027 212.884 47.2027C212.877 47.984 212.868 48.7773 212.853 49.5747C211.443 49.9173 210.391 51.18 210.391 52.696C210.391 54.128 211.332 55.328 212.625 55.7467C212.592 56.3133 212.553 56.8654 212.511 57.4027C208.499 57.9427 205.403 61.3707 205.403 65.5307C205.403 68.9214 207.459 71.8307 210.391 73.0827V77.4533H208.597V79.9294H210.391V85.432H208.597V87.9067H210.391V91.088C210.391 96.32 206.149 100.561 200.917 100.561H199.284V106.2H196.945V109.501H198.459L202.172 120.78V146.776H195.479V154.753H193.829V157.78H195.479L200.981 172.635V239.301H190.773V247.279H188.693V250.304H190.773L197.703 265.16V337.049L190.773 351.904V366.025C185.395 357.684 177.101 350.077 168.071 346.916H168.101C168.101 346.916 167.245 345.688 166.753 345.443C166.307 345.219 162.208 344.781 160.796 341.243C161.329 340.831 161.679 340.192 161.679 339.467C161.679 338.461 161.015 337.62 160.105 337.331C160.077 336.981 160.052 336.624 160.029 336.255C160.819 335.998 161.395 335.267 161.395 334.391C161.395 333.465 160.752 332.695 159.891 332.485C159.881 331.996 159.876 331.509 159.872 331.029C160.375 330.845 160.739 330.373 160.739 329.807C160.739 329.24 160.375 328.768 159.871 328.584C159.879 327.404 159.897 326.357 159.915 325.555C160.74 325.465 161.457 325.019 161.88 324.351C161.676 324.448 161.451 324.505 161.209 324.505C160.34 324.505 159.633 323.8 159.633 322.931C159.633 322.06 160.34 321.355 161.209 321.355C161.451 321.355 161.676 321.412 161.88 321.509C161.409 320.765 160.58 320.269 159.633 320.269C158.164 320.269 156.973 321.46 156.973 322.931C156.973 324.157 157.808 325.18 158.937 325.487C158.956 326.299 158.975 327.372 158.983 328.584C158.479 328.768 158.115 329.24 158.115 329.807C158.115 330.373 158.479 330.845 158.983 331.029C158.979 331.509 158.972 331.996 158.964 332.485C158.101 332.695 157.46 333.465 157.46 334.391C157.46 335.267 158.035 335.998 158.825 336.255C158.803 336.624 158.777 336.981 158.749 337.331C157.839 337.62 157.176 338.461 157.176 339.467C157.176 340.192 157.525 340.831 158.059 341.243C156.645 344.781 152.548 345.219 152.1 345.443C151.609 345.688 150.752 346.916 150.752 346.916H150.783C136.877 351.784 124.709 367.203 122.26 379.58C119.313 394.48 123.733 404.304 123.733 404.304L121.247 405.941C121.247 405.941 123.407 408.888 123.407 411.508V413.023H124.143V426.325H102.695V408.492L95.7653 393.637V321.748L102.695 306.893H104.775V303.867H102.695V295.889H92.4866V229.223L97.9879 214.368H99.6387V211.341H97.9879V203.364H91.2947V177.368L95.0093 166.089H96.5227V162.789H94.184V157.149H92.5506C87.3186 157.149 83.0773 152.908 83.0773 147.676V144.495H84.8693V142.02H83.0773V136.517H84.8693V134.041H83.0773V129.671C86.0093 128.419 88.0653 125.509 88.0653 122.119C88.0653 117.959 84.9693 114.531 80.9573 113.991C80.9146 113.453 80.876 112.901 80.8413 112.335C82.1347 111.916 83.0773 110.716 83.0773 109.284C83.0773 107.768 82.0253 106.505 80.6146 106.163C80.6013 105.365 80.5906 104.572 80.584 103.791C81.4106 103.491 82.004 102.707 82.004 101.777C82.004 100.847 81.4106 100.063 80.5826 99.764C80.5959 97.8507 80.6253 96.1533 80.6533 94.844C82.0093 94.7 83.1786 93.94 83.8733 92.844C83.54 93.0013 83.1693 93.0974 82.776 93.0974C81.3506 93.0974 80.1947 91.9413 80.1947 90.5173C80.1947 89.092 81.3506 87.936 82.776 87.936C83.1693 87.936 83.54 88.032 83.8733 88.1907C83.1013 86.972 81.744 86.16 80.1947 86.16C77.7893 86.16 75.8387 88.1107 75.8387 90.5173C75.8387 92.5253 77.2053 94.2 79.0546 94.704C79.0853 96.0307 79.116 97.7827 79.1293 99.764C78.3013 100.063 77.708 100.847 77.708 101.777C77.708 102.707 78.3013 103.491 79.128 103.791C79.1213 104.572 79.112 105.365 79.0973 106.163C77.6867 106.505 76.6346 107.768 76.6346 109.284C76.6346 110.716 77.576 111.916 78.8706 112.335C78.836 112.901 78.7973 113.453 78.7546 113.991C74.7426 114.531 71.6467 117.959 71.6467 122.119C71.6467 125.509 73.7026 128.419 76.6346 129.671V134.041H74.8413V136.517H76.6346V142.02H74.8413V144.495H76.6346V147.676C76.6346 152.908 72.3933 157.149 67.1613 157.149H65.528V162.789H63.1893V166.089H64.7027L68.4159 177.368V203.364H61.7227V211.341H60.0733V214.368H61.7227L67.2253 229.223V295.889H57.0173V303.867H54.9373V306.893H57.0173L63.9467 321.748V393.637L57.0173 408.492V428.585C51.8266 422.165 45 416.693 37.6893 414.135H37.72C37.72 414.135 36.864 412.907 36.372 412.661C35.9253 412.437 31.8266 411.998 30.4146 408.461C30.9466 408.049 31.2973 407.41 31.2973 406.685C31.2973 405.68 30.6333 404.839 29.7227 404.549C29.6947 404.2 29.6693 403.841 29.648 403.472C30.4373 403.217 31.012 402.484 31.012 401.609C31.012 400.684 30.3706 399.912 29.5093 399.703C29.5 399.215 29.4933 398.727 29.4906 398.247C29.9933 398.064 30.3573 397.592 30.3573 397.025C30.3573 396.457 29.9933 395.985 29.4893 395.803C29.4973 394.622 29.5147 393.576 29.5333 392.772C30.3587 392.684 31.076 392.237 31.4986 391.569C31.2946 391.665 31.0693 391.724 30.828 391.724C29.9573 391.724 29.252 391.019 29.252 390.148C29.252 389.279 29.9573 388.572 30.828 388.572C31.0693 388.572 31.2946 388.631 31.4986 388.728C31.0266 387.983 30.1986 387.488 29.252 387.488C27.7826 387.488 26.592 388.679 26.592 390.148C26.592 391.374 27.4267 392.397 28.556 392.705C28.5747 393.517 28.5933 394.591 28.6013 395.803C28.0973 395.985 27.7333 396.457 27.7333 397.025C27.7333 397.592 28.0973 398.064 28.6 398.247C28.5973 398.727 28.5906 399.215 28.5813 399.703C27.72 399.912 27.0786 400.684 27.0786 401.609C27.0786 402.484 27.6533 403.217 28.4426 403.472C28.4213 403.841 28.396 404.2 28.368 404.549C27.4573 404.839 26.7933 405.68 26.7933 406.685C26.7933 407.41 27.144 408.049 27.6773 408.461C26.264 411.998 22.1653 412.437 21.7186 412.661C21.2266 412.907 20.3706 414.135 20.3706 414.135H20.4013C12.5773 416.873 5.30267 422.953 0 429.952V464.688H1000V429.952C994.695 422.953 987.428 416.873 979.601 414.135Z" fill="#152222"/>
</svg>
